<svg width="19" height="19" viewBox="0 0 19 19" fill="none" xmlns="http://www.w3.org/2000/svg">
<path d="M9.52759 2.05868C11.9181 2.05868 12.2027 2.05865 13.1631 2.11556C13.7293 2.11989 14.2904 2.22347 14.8209 2.42153C15.2151 2.57578 15.5682 2.81931 15.8525 3.13299C16.1584 3.42396 16.4007 3.7752 16.5639 4.16458C16.7586 4.69597 16.862 5.25648 16.8699 5.82232C16.9126 6.76857 16.9268 7.04607 16.9268 9.45792C16.9268 11.8698 16.9268 12.133 16.8699 13.0864C16.8617 13.6545 16.7583 14.2172 16.5639 14.7511C16.4094 15.1432 16.1659 15.494 15.8525 15.7757C15.5657 16.0866 15.2133 16.3296 14.8209 16.4872C14.2911 16.6887 13.7299 16.7946 13.1631 16.8002C12.2169 16.8429 11.9323 16.8571 9.52759 16.8571C7.12284 16.8571 6.85249 16.8571 5.89204 16.8002C5.32529 16.7946 4.76403 16.6887 4.23431 16.4872C3.83724 16.3383 3.48293 16.094 3.20268 15.7757C2.90972 15.484 2.67968 15.1353 2.5268 14.7511C2.33243 14.2172 2.22902 13.6545 2.22087 13.0864C2.17818 12.1472 2.16395 11.8627 2.16395 9.45792C2.16395 7.05317 2.16395 6.78282 2.22087 5.82232C2.22873 5.25648 2.33216 4.69597 2.5268 4.16458C2.67074 3.7738 2.90189 3.42102 3.20268 3.13299C3.49365 2.82704 3.84493 2.58478 4.23431 2.42153C4.76476 2.22347 5.32582 2.11989 5.89204 2.11556C6.83824 2.07288 7.13709 2.05868 9.52759 2.05868ZM9.52759 0.436523C7.09439 0.436523 6.78134 0.436579 5.82089 0.493496C5.07674 0.510104 4.34074 0.651988 3.64379 0.913234C3.04237 1.14091 2.49832 1.49792 2.05012 1.95906C1.59349 2.40956 1.23921 2.9531 1.01138 3.55273C0.743499 4.24806 0.599035 4.98485 0.584501 5.72987C0.541813 6.69032 0.527588 6.99622 0.527588 9.43652C0.527588 11.8769 0.527584 12.1828 0.584501 13.1362C0.598208 13.8836 0.742686 14.6228 1.01138 15.3204C1.23335 15.9229 1.58841 16.4677 2.05012 16.914C2.49843 17.3819 3.04187 17.7483 3.64379 17.9883C4.33912 18.2562 5.07586 18.4007 5.82089 18.4152C6.78134 18.4579 7.09439 18.4722 9.52759 18.4722C11.9608 18.4722 12.2738 18.4721 13.2343 18.4152C13.9793 18.4007 14.716 18.2562 15.4114 17.9883C16.014 17.7664 16.5587 17.4113 17.005 16.9496C17.4586 16.4967 17.8125 15.9538 18.0438 15.356C18.3125 14.6584 18.4569 13.9191 18.4707 13.1717C18.5133 12.2184 18.5276 11.9054 18.5276 9.47217C18.5276 7.03892 18.5276 6.72582 18.4707 5.76537C18.4561 5.02037 18.3117 4.28367 18.0438 3.58834C17.8231 2.98508 17.4679 2.44005 17.005 1.99467C16.5468 1.52369 15.9939 1.15512 15.3829 0.913234C14.686 0.651988 13.95 0.510104 13.2058 0.493496C12.2454 0.450808 11.9323 0.436523 9.49914 0.436523H9.52759Z" fill="#0E0F0C"/>
<path d="M9.52724 4.80469C8.61679 4.80469 7.72684 5.0747 6.96984 5.58051C6.21289 6.08631 5.62289 6.80516 5.27447 7.64626C4.92606 8.48741 4.83491 9.41301 5.01252 10.3059C5.19014 11.1989 5.62854 12.0191 6.27229 12.6628C6.91609 13.3066 7.73629 13.745 8.62919 13.9226C9.52214 14.1002 10.4477 14.009 11.2888 13.6606C12.1299 13.3122 12.8488 12.7223 13.3546 11.9653C13.8604 11.2083 14.1304 10.3183 14.1304 9.40781C14.1304 8.18701 13.6454 7.01616 12.7821 6.15291C11.9189 5.28966 10.7481 4.80469 9.52724 4.80469ZM9.52724 12.4032C8.93314 12.4032 8.35234 12.2269 7.85849 11.8967C7.36459 11.5664 6.97974 11.0971 6.75274 10.5481C6.52569 9.99906 6.46664 9.39501 6.58309 8.81241C6.69949 8.22981 6.98619 7.69486 7.40679 7.27526C7.82739 6.85566 8.36299 6.57026 8.94589 6.45526C9.52874 6.34021 10.1326 6.40061 10.6811 6.62896C11.2296 6.85726 11.698 7.24321 12.0271 7.73791C12.3561 8.23256 12.531 8.81371 12.5296 9.40781C12.5277 10.2029 12.2106 10.9647 11.6477 11.5263C11.0849 12.0878 10.3223 12.4032 9.52724 12.4032Z" fill="#0E0F0C"/>
<path d="M14.318 5.71557C14.9153 5.71557 15.3994 5.23141 15.3994 4.63415C15.3994 4.0369 14.9153 3.55273 14.318 3.55273C13.7207 3.55273 13.2366 4.0369 13.2366 4.63415C13.2366 5.23141 13.7207 5.71557 14.318 5.71557Z" fill="#0E0F0C"/>
</svg>
