<svg width="18" height="19" viewBox="0 0 18 19" fill="none" xmlns="http://www.w3.org/2000/svg">
<path d="M6 8.55005V12.3M6 6.30005V6.30755M9 12.3V8.55005M12 12.3V10.05C12 9.65222 11.842 9.27069 11.5607 8.98939C11.2794 8.70808 10.8978 8.55005 10.5 8.55005C10.1022 8.55005 9.72064 8.70808 9.43934 8.98939C9.15804 9.27069 9 9.65222 9 10.05M3 4.80005C3 4.40222 3.15804 4.02069 3.43934 3.73939C3.72064 3.45808 4.10218 3.30005 4.5 3.30005H13.5C13.8978 3.30005 14.2794 3.45808 14.5607 3.73939C14.842 4.02069 15 4.40222 15 4.80005V13.8C15 14.1979 14.842 14.5794 14.5607 14.8607C14.2794 15.142 13.8978 15.3 13.5 15.3H4.5C4.10218 15.3 3.72064 15.142 3.43934 14.8607C3.15804 14.5794 3 14.1979 3 13.8V4.80005Z" stroke="black" stroke-width="1.5" stroke-linecap="round" stroke-linejoin="round"/>
</svg>
