<svg width="18" height="19" viewBox="0 0 18 19" fill="none" xmlns="http://www.w3.org/2000/svg">
<path d="M9.75 14.55H3.75C3.35218 14.55 2.97064 14.392 2.68934 14.1107C2.40804 13.8294 2.25 13.4479 2.25 13.05V5.55005M2.25 5.55005C2.25 5.15222 2.40804 4.77069 2.68934 4.48939C2.97064 4.20808 3.35218 4.05005 3.75 4.05005H14.25C14.6478 4.05005 15.0294 4.20808 15.3107 4.48939C15.592 4.77069 15.75 5.15222 15.75 5.55005M2.25 5.55005L9 10.05L15.75 5.55005M15.75 5.55005V10.05M12 16.8L15.75 13.05M15.75 13.05V16.425M15.75 13.05H12.375" stroke="#0E0F0C" stroke-width="1.5" stroke-linecap="round" stroke-linejoin="round"/>
</svg>
