<svg width="19" height="19" viewBox="0 0 19 19" fill="none" xmlns="http://www.w3.org/2000/svg">
<path d="M9.26929 0.936523C7.34754 0.940378 5.48728 1.61317 4.00902 2.83893C2.53075 4.06469 1.52703 5.76672 1.17076 7.65177C0.814486 9.53682 1.12797 11.4869 2.05722 13.1661C2.98646 14.8452 4.47329 16.1483 6.26154 16.8508C6.15314 16.0642 6.16194 15.2659 6.28764 14.4819C6.43104 13.8398 7.25689 10.3862 7.25689 10.3862C7.08844 10.0004 7.00404 9.58342 7.00914 9.16267C7.00914 8.01727 7.66979 7.16252 8.50434 7.16252C8.65239 7.15947 8.79939 7.18832 8.93529 7.24707C9.07119 7.30587 9.19279 7.39322 9.29179 7.50317C9.39079 7.61312 9.46489 7.74312 9.50899 7.88422C9.55314 8.02537 9.56624 8.17432 9.54749 8.32097C9.54749 9.02382 9.11284 10.0868 8.85639 11.0673C8.80954 11.2486 8.80624 11.4383 8.84674 11.621C8.88719 11.8038 8.97034 11.9744 9.08939 12.119C9.20844 12.2636 9.35999 12.3781 9.53174 12.4532C9.70349 12.5283 9.89054 12.5619 10.0777 12.5512C11.5468 12.5512 12.6856 11.0066 12.6856 8.77652C12.6856 6.80242 11.2643 5.41841 9.23454 5.41841C8.75179 5.39784 8.26994 5.47532 7.81809 5.64622C7.36629 5.81707 6.95389 6.07777 6.60604 6.41247C6.25814 6.74717 5.98194 7.14882 5.79424 7.59327C5.60649 8.03767 5.51116 8.51552 5.51395 8.99782C5.51553 9.67207 5.72829 10.3289 6.12244 10.8764C6.15189 10.9088 6.17289 10.9479 6.18349 10.9903C6.19414 11.0327 6.19404 11.0771 6.18329 11.1194C6.12244 11.3754 5.98769 11.9394 5.95294 12.0522C5.91819 12.165 5.83124 12.2344 5.67479 12.165C4.64466 11.6834 4.00138 10.1823 4.00138 8.97177C4.00138 6.36857 5.89209 3.98662 9.45184 3.98662C12.3162 3.98662 14.5416 6.02147 14.5416 8.75917C14.5416 11.5967 12.7421 13.8832 10.2603 13.8832C9.89114 13.8952 9.52484 13.815 9.19464 13.6498C8.86449 13.4846 8.58084 13.2397 8.36959 12.9373C8.36959 12.9373 7.95669 14.5079 7.85234 14.8941C7.60489 15.658 7.26014 16.3871 6.82659 17.0634C7.61704 17.3113 8.44079 17.4371 9.26929 17.4365C11.4595 17.4365 13.56 16.568 15.1088 15.0221C16.6575 13.4761 17.5276 11.3793 17.5276 9.19302C17.5276 7.00672 16.6575 4.90995 15.1088 3.364C13.56 1.81805 11.4595 0.949553 9.26929 0.949553V0.936523Z" fill="#0E0F0C"/>
</svg>
