<svg width="19" height="19" viewBox="0 0 19 19" fill="none" xmlns="http://www.w3.org/2000/svg">
<path d="M1.52759 1.44411C1.5568 1.44221 1.58602 1.43842 1.61341 1.43842C3.15096 1.43652 4.69034 1.43842 6.22789 1.43652C6.28814 1.43652 6.31919 1.45929 6.35024 1.50671C7.69604 3.54398 9.04184 5.57937 10.3877 7.61662C10.4004 7.63747 10.415 7.65837 10.4351 7.68492C10.4534 7.66402 10.4698 7.64507 10.4844 7.62612C11.2112 6.74782 11.9398 5.86767 12.6666 4.98941C13.5595 3.91008 14.4525 2.83264 15.3454 1.7533C15.4221 1.66036 15.4988 1.56741 15.5755 1.47446C15.5956 1.4498 15.6157 1.43652 15.6486 1.43652C16.0905 1.43652 16.5324 1.43652 16.9761 1.43652C16.9852 1.43652 16.9944 1.43842 17.0017 1.44032C17.0017 1.44411 17.0035 1.44601 17.0053 1.4479C17.0053 1.4498 17.0053 1.4517 17.0053 1.45359C17.0035 1.45739 17.0017 1.46118 16.998 1.46498C16.998 1.46687 16.9962 1.46877 16.9944 1.47067C16.9907 1.47446 16.9889 1.47825 16.9852 1.48205C16.9816 1.48774 16.9761 1.49343 16.9725 1.49722C15.0113 3.86645 13.0501 6.23567 11.0907 8.60492C11.087 8.60867 11.0852 8.61247 11.0816 8.61627C11.0816 8.61627 11.0779 8.62007 11.0779 8.62197C11.0761 8.62577 11.0724 8.62957 11.0706 8.63337C11.0706 8.63527 11.0706 8.63712 11.0688 8.64472C11.1455 8.76042 11.224 8.88182 11.3025 9.00137C13.1158 11.7462 14.9309 14.4891 16.7442 17.2339C16.9944 17.6133 17.2445 17.9908 17.4947 18.3701C17.5075 18.391 17.5166 18.4138 17.5276 18.4365H12.767C12.7542 18.4157 12.7415 18.3929 12.7268 18.372C11.8029 16.9759 10.8807 15.5798 9.95674 14.1818C9.45454 13.423 8.95239 12.6624 8.45204 11.9036C8.43924 11.8846 8.42464 11.8657 8.40819 11.8429C8.38994 11.8638 8.37719 11.8771 8.36619 11.8903C7.82204 12.5486 7.27604 13.2068 6.73189 13.865C5.73119 15.0752 4.72868 16.2835 3.728 17.4938C3.4687 17.8068 3.2094 18.1216 2.95009 18.4346H1.54037C1.55315 18.4176 1.56411 18.4024 1.57689 18.3853C2.43697 17.3458 3.29887 16.3044 4.15895 15.2649C5.26555 13.9276 6.37399 12.5903 7.48059 11.253C7.58099 11.1316 7.67959 11.0121 7.78189 10.8888C7.73989 10.8262 7.70154 10.7655 7.66134 10.7048C5.79874 7.89167 3.938 5.07477 2.07541 2.25788C1.90924 2.00749 1.74489 1.7552 1.57689 1.50481C1.56411 1.48584 1.56046 1.45359 1.52759 1.45739V1.44411ZM13.4372 17.38C13.6399 17.3951 15.5408 17.3875 15.5938 17.3705C15.5755 17.3439 15.5591 17.3174 15.5408 17.2908C15.0843 16.6136 14.6296 15.9364 14.1731 15.2573C12.7798 13.1859 11.3865 11.1126 9.99139 9.04117C8.54884 6.89577 7.10439 4.74851 5.66179 2.60311C5.63439 2.56328 5.60704 2.54621 5.55954 2.54621C4.88572 2.54621 4.21373 2.54621 3.53991 2.54621C3.518 2.54621 3.49791 2.5481 3.46322 2.55C6.79214 7.50092 10.1156 12.4404 13.4354 17.3781L13.4372 17.38Z" fill="#0E0F0C"/>
</svg>
