<svg width="19" height="19" viewBox="0 0 19 19" fill="none" xmlns="http://www.w3.org/2000/svg">
<mask id="mask0_76_507" style="mask-type:luminance" maskUnits="userSpaceOnUse" x="0" y="0" width="19" height="19">
<path d="M18.5276 0.436523H0.527588V18.4365H18.5276V0.436523Z" fill="white"/>
</mask>
<g mask="url(#mask0_76_507)">
<path fill-rule="evenodd" clip-rule="evenodd" d="M17.5784 3.93652C17.8284 4.18652 18.0284 4.53652 18.1284 4.93652C18.4284 6.38652 18.5284 7.83652 18.5284 9.28652C18.5284 10.7365 18.4284 12.2365 18.1284 13.6365C18.0284 14.0365 17.8284 14.3865 17.5784 14.6865C17.2784 14.9365 16.9284 15.1365 16.5784 15.2365C15.1784 15.6365 9.52837 15.6365 9.52837 15.6365C9.52837 15.6365 3.87837 15.6365 2.47837 15.2365C2.12837 15.1365 1.77837 14.9365 1.47837 14.6865C1.22837 14.3865 1.02837 14.0365 0.928369 13.6365C0.378369 10.7865 0.378369 7.83652 0.928369 4.93652C1.02837 4.53652 1.22837 4.18652 1.47837 3.93652C1.77837 3.63652 2.12837 3.43652 2.47837 3.33652C3.87837 2.93652 9.52837 2.93652 9.52837 2.93652C9.52837 2.93652 15.1784 2.93652 16.5784 3.33652C16.9284 3.43652 17.2784 3.63652 17.5784 3.93652ZM12.3784 9.28652L7.67837 11.9365V6.58652L12.3784 9.28652Z" fill="#0E0F0C"/>
</g>
</svg>
