<svg width="36" height="36" viewBox="0 0 36 36" fill="none" xmlns="http://www.w3.org/2000/svg">
<g clip-path="url(#clip0_1127_585)">
<path d="M30.5526 16.0263V12.3947C30.5526 11.4316 30.17 10.5079 29.489 9.82682C28.8079 9.14577 27.8842 8.76316 26.9211 8.76316H12.3947C11.4316 8.76316 10.5079 9.14577 9.82682 9.82682C9.14577 10.5079 8.76316 11.4316 8.76316 12.3947V26.9211C8.76316 27.8842 9.14577 28.8079 9.82682 29.489C10.5079 30.17 11.4316 30.5526 12.3947 30.5526H16.0263M1.5 1.5V1.51816M8.76316 1.5V1.51816M16.0263 1.5V1.51816M23.2895 1.5V1.51816M1.5 8.76316V8.78132M1.5 16.0263V16.0445M1.5 23.2895V23.3076M19.6579 19.6579L36 25.1053L28.7368 28.7368L25.1053 36L19.6579 19.6579Z" stroke="#0E0F0C" stroke-width="1.5" stroke-linecap="round" stroke-linejoin="round"/>
</g>
<defs>
<clipPath id="clip0_1127_585">
<rect width="36" height="36" fill="white"/>
</clipPath>
</defs>
</svg>
