<svg width="36" height="36" viewBox="0 0 36 36" fill="none" xmlns="http://www.w3.org/2000/svg">
<path d="M22.5977 29.598C21.1727 30.4335 19.6277 31.077 18.0002 31.5C15.6651 30.8943 13.4755 29.8254 11.5616 28.3567C9.64765 26.8881 8.0485 25.0497 6.85913 22.9508C5.66976 20.8519 4.91444 18.5353 4.63805 16.1388C4.36167 13.7422 4.56985 11.3145 5.25024 9C9.92353 9.21385 14.4965 7.59986 18.0002 4.5C21.504 7.59986 26.0769 9.21385 30.7502 9C31.5152 11.607 31.6757 14.325 31.2497 16.9545M28.499 33V33.015M28.499 28.4996C29.1715 28.4975 29.8238 28.2698 30.3515 27.8531C30.8792 27.4363 31.2519 26.8546 31.4099 26.2009C31.5678 25.5473 31.5019 24.8596 31.2228 24.2478C30.9436 23.6361 30.4673 23.1356 29.87 22.8266C29.2733 22.521 28.5907 22.4262 27.9332 22.5577C27.2758 22.6893 26.6822 23.0394 26.249 23.5511" stroke="#0E0F0C" stroke-width="1.5" stroke-linecap="round" stroke-linejoin="round"/>
</svg>
