<svg width="36" height="36" viewBox="0 0 36 36" fill="none" xmlns="http://www.w3.org/2000/svg">
<path d="M14.6325 9.48797H21.3685M14.6325 28.012V34.748L18.0005 33.064L21.3685 34.748V28.012M14.6325 29.696H11.2645C10.3712 29.696 9.51458 29.3412 8.88295 28.7096C8.25133 28.0779 7.89648 27.2213 7.89648 26.328V6.11996C7.89648 5.22671 8.25133 4.37004 8.88295 3.73842C9.51458 3.1068 10.3712 2.75195 11.2645 2.75195H24.7365C25.6298 2.75195 26.4865 3.1068 27.1181 3.73842C27.7497 4.37004 28.1045 5.22671 28.1045 6.11996V26.328C28.1045 27.2213 27.7497 28.0779 27.1181 28.7096C26.4865 29.3412 25.6298 29.696 24.7365 29.696H21.3685M12.9485 22.96C12.9485 24.2999 13.4808 25.5849 14.4282 26.5323C15.3756 27.4798 16.6606 28.012 18.0005 28.012C19.3404 28.012 20.6254 27.4798 21.5728 26.5323C22.5203 25.5849 23.0525 24.2999 23.0525 22.96C23.0525 21.6201 22.5203 20.3351 21.5728 19.3877C20.6254 18.4403 19.3404 17.908 18.0005 17.908C16.6606 17.908 15.3756 18.4403 14.4282 19.3877C13.4808 20.3351 12.9485 21.6201 12.9485 22.96Z" stroke="#0E0F0C" stroke-width="1.5" stroke-linecap="round" stroke-linejoin="round"/>
</svg>
