<svg width="16" height="10" viewBox="0 0 16 10" fill="none" xmlns="http://www.w3.org/2000/svg">
<path d="M1.07813 4.39561C0.746754 4.39561 0.478125 4.66423 0.478125 4.99561C0.478125 5.32698 0.746754 5.59561 1.07812 5.59561L1.07812 4.99561L1.07813 4.39561ZM15.4641 5.41987C15.6984 5.18556 15.6984 4.80566 15.4641 4.57134L11.6457 0.752965C11.4114 0.518651 11.0315 0.518651 10.7972 0.752965C10.5628 0.98728 10.5628 1.36718 10.7972 1.60149L14.1913 4.99561L10.7972 8.38972C10.5628 8.62403 10.5628 9.00393 10.7972 9.23825C11.0315 9.47256 11.4114 9.47256 11.6457 9.23825L15.4641 5.41987ZM1.07812 4.99561L1.07812 5.59561L15.0398 5.59561L15.0398 4.99561L15.0398 4.39561L1.07813 4.39561L1.07812 4.99561Z" fill="#0E0F0C"/>
</svg>
