<svg width="24" height="25" viewBox="0 0 24 25" fill="none" xmlns="http://www.w3.org/2000/svg">
<path d="M12.002 7.25392C13.5826 8.49863 14.5975 10.4296 14.5975 12.5976C14.5975 14.7656 13.5826 16.6965 12.002 17.9412C10.4214 16.6965 9.40644 14.7656 9.40644 12.5976C9.40644 10.4296 10.4214 8.49863 12.002 7.25392ZM11.1326 6.67155C9.46121 8.10214 8.40195 10.2273 8.40195 12.5999C8.40195 14.9709 9.45988 17.0948 11.1295 18.5254C10.1454 19.0794 9.00944 19.3954 7.7997 19.3954C4.0454 19.3954 1.00195 16.3519 1.00195 12.5976C1.00195 8.84326 4.0454 5.7998 7.7997 5.7998C9.01073 5.7998 10.1478 6.11648 11.1326 6.67155ZM12.8745 18.5254C14.544 17.0948 15.602 14.9709 15.602 12.5999C15.602 10.2273 14.5427 8.10214 12.8713 6.67155C13.8561 6.11648 14.9932 5.7998 16.2042 5.7998C19.9585 5.7998 23.002 8.84326 23.002 12.5976C23.002 16.3519 19.9585 19.3954 16.2042 19.3954C14.9945 19.3954 13.8586 19.0794 12.8745 18.5254Z" fill="#0E0F0C" fill-opacity="0.2"/>
</svg>
