<svg width="32" height="33" viewBox="0 0 32 33" fill="none" xmlns="http://www.w3.org/2000/svg">
<path d="M9.30567 4.84608C10.4857 4.64501 11.6959 4.71134 12.8469 5.04017C13.998 5.36901 15.0606 5.95197 15.9563 6.74608L16.0057 6.79008L16.051 6.75008C16.9059 5.99981 17.911 5.44047 18.9992 5.10939C20.0874 4.7783 21.2337 4.68308 22.3617 4.83008L22.6897 4.87808C24.1114 5.12356 25.4403 5.74895 26.5356 6.68804C27.6309 7.62712 28.4519 8.84494 28.9116 10.2125C29.3713 11.5801 29.4526 13.0466 29.1469 14.4566C28.8411 15.8666 28.1598 17.1677 27.175 18.2221L26.935 18.4687L26.871 18.5234L16.9377 28.3621C16.7084 28.589 16.4047 28.7251 16.0828 28.7452C15.7609 28.7653 15.4427 28.668 15.187 28.4714L15.0617 28.3621L5.071 18.4661C4.01262 17.4363 3.25993 16.1337 2.89628 14.7024C2.53262 13.2712 2.5722 11.7673 3.01062 10.3572C3.44905 8.94706 4.26921 7.68581 5.38028 6.71311C6.49135 5.7404 7.84997 5.09421 9.30567 4.84608Z" fill="white" fill-opacity="0.2" stroke="white" stroke-width="2" stroke-linecap="round" stroke-linejoin="round"/>
</svg>
