<svg width="13" height="13" viewBox="0 0 13 13" fill="none" xmlns="http://www.w3.org/2000/svg">
<g clip-path="url(#clip0_76_196)">
<path d="M4.30884 8.765C4.92984 8.765 5.43384 9.269 5.43384 9.89V10.265L7.13384 8.99C7.32784 8.845 7.56384 8.765 7.80784 8.765H11.0588C11.1582 8.76474 11.2534 8.72514 11.3237 8.65487C11.394 8.5846 11.4336 8.48937 11.4338 8.39V1.64C11.4336 1.54062 11.394 1.44539 11.3237 1.37513C11.2534 1.30486 11.1582 1.26526 11.0588 1.265H2.05884C1.95946 1.26526 1.86423 1.30486 1.79396 1.37513C1.7237 1.44539 1.6841 1.54062 1.68384 1.64V8.39C1.68384 8.596 1.85284 8.765 2.05884 8.765H4.30884ZM5.43384 11.671L5.42884 11.676L5.30884 11.765L4.90884 12.065C4.85276 12.1065 4.78629 12.1318 4.71677 12.138C4.64724 12.1442 4.57737 12.131 4.51484 12.1C4.45248 12.0692 4.40008 12.0214 4.36364 11.9621C4.32721 11.9029 4.30821 11.8346 4.30884 11.765V9.89H2.05884C1.23184 9.89 0.558838 9.217 0.558838 8.39V1.64C0.558838 0.812999 1.23184 0.139999 2.05884 0.139999H11.0588C11.8858 0.139999 12.5588 0.812999 12.5588 1.64V8.39C12.5588 9.217 11.8858 9.89 11.0588 9.89H7.80884L5.43384 11.671Z" fill="#0E0F0C"/>
</g>
<defs>
<clipPath id="clip0_76_196">
<rect width="12" height="12" fill="white" transform="translate(0.558838 0.139999)"/>
</clipPath>
</defs>
</svg>
