<svg width="76" height="76" viewBox="0 0 76 76" fill="none" xmlns="http://www.w3.org/2000/svg">
<path d="M38 1C67.6 1 75 8.4 75 38C75 67.6 67.6 75 38 75C8.4 75 1 67.6 1 38C1 8.4 8.4 1 38 1Z" stroke="#D9E009" stroke-width="2" stroke-linecap="round" stroke-linejoin="round"/>
<path d="M41.6533 34.0007L41.192 46.0007M34.808 46.0007L34.3467 34.0007M47.6373 29.7207C48.0933 29.79 48.5467 29.8634 49 29.942M47.6373 29.7207L46.2133 48.2314C46.1552 48.985 45.8148 49.6889 45.26 50.2024C44.7053 50.7158 43.9772 51.0009 43.2213 51.0007H32.7787C32.0228 51.0009 31.2947 50.7158 30.74 50.2024C30.1852 49.6889 29.8448 48.985 29.7867 48.2314L28.3627 29.7207M47.6373 29.7207C46.0985 29.4881 44.5517 29.3115 43 29.1914M28.3627 29.7207C27.9067 29.7887 27.4533 29.862 27 29.9407M28.3627 29.7207C29.9015 29.4881 31.4483 29.3115 33 29.1914M43 29.1914V27.97C43 26.3967 41.7867 25.0847 40.2133 25.0354C38.7382 24.9882 37.2618 24.9882 35.7867 25.0354C34.2133 25.0847 33 26.398 33 27.97V29.1914M43 29.1914C39.6716 28.9341 36.3284 28.9341 33 29.1914" stroke="#D9E009" stroke-width="1.5" stroke-linecap="round" stroke-linejoin="round"/>
</svg>
