<svg width="509" height="465" viewBox="0 0 509 465" fill="none" xmlns="http://www.w3.org/2000/svg">
<path d="M473.942 29.2185C465.886 29.2185 459.332 22.6647 459.332 14.6089C459.332 6.55346 465.886 0 473.942 0C481.997 0 488.55 6.55358 488.55 14.6089C488.551 22.6647 481.997 29.2185 473.942 29.2185ZM473.942 2.51901C467.275 2.51901 461.851 7.94244 461.851 14.6089C461.851 21.2757 467.275 26.6995 473.942 26.6995C480.608 26.6995 486.031 21.2757 486.031 14.6089C486.032 7.94244 480.608 2.51901 473.942 2.51901Z" fill="#0E0F0C" fill-opacity="0.4"/>
<path d="M47.8137 67.4206C48.6655 71.0827 46.3874 74.7414 42.7259 75.593C39.0638 76.4448 35.4053 74.1669 34.5535 70.5049C33.7018 66.8431 35.9795 63.1845 39.6417 62.3328C43.3032 61.481 46.962 63.7589 47.8137 67.4206Z" fill="#0E0F0C" fill-opacity="0.4"/>
<path d="M14.4692 131.272C11.6457 131.469 8.83976 130.777 6.39052 129.253C3.31783 127.339 1.17403 124.344 0.353843 120.818C-1.33881 113.54 3.20511 106.242 10.4832 104.549C17.7612 102.856 25.059 107.4 26.7518 114.678C28.4447 121.956 23.9009 129.255 16.6231 130.947C15.9077 131.114 15.1879 131.222 14.4692 131.272ZM12.7899 106.741C12.2138 106.782 11.6338 106.868 11.0538 107.003C5.12863 108.381 1.42921 114.322 2.80736 120.247C3.47502 123.118 5.22032 125.557 7.72182 127.114C10.2233 128.672 13.182 129.162 16.0524 128.494C21.9774 127.116 25.6764 121.174 24.2982 115.249C23.055 109.904 18.0981 106.37 12.7899 106.741Z" fill="#0E0F0C" fill-opacity="0.4"/>
<path d="M75.2791 460.007C71.0393 460.007 67.5898 456.558 67.5898 452.318C67.5898 448.078 71.0393 444.629 75.2791 444.629C79.5189 444.629 82.9681 448.078 82.9681 452.318C82.9681 456.558 79.5189 460.007 75.2791 460.007ZM75.2791 446.644C72.1505 446.644 69.6051 449.189 69.6051 452.318C69.6051 455.447 72.1504 457.992 75.2791 457.992C78.4076 457.992 80.9529 455.447 80.9529 452.318C80.9529 449.189 78.4076 446.644 75.2791 446.644Z" fill="#0E0F0C" fill-opacity="0.4"/>
<path d="M106.744 109.95C71.869 136.221 42.6572 168.05 31.8756 206.668C18.2859 255.343 34.2857 308.217 65.7604 347.682C123.931 420.618 235.945 448.358 325.487 412.002C415.859 375.309 467.871 277.375 479.596 188.072C484.43 151.246 479.163 112.303 458.217 81.5856C432.86 44.3987 386.666 23.2907 340.125 20.3539C293.584 17.4167 246.879 30.9846 205.089 51.7659C173.897 67.2766 138.04 86.3753 106.744 109.95Z" fill="#0E0F0C" fill-opacity="0.08"/>
<path d="M344.435 464.356C344.035 464.386 343.679 464.096 343.631 463.693C343.581 463.279 343.876 462.902 344.29 462.852C345.519 462.704 346.688 462.36 347.767 461.829C348.141 461.644 348.594 461.798 348.779 462.172C348.963 462.547 348.809 463 348.435 463.184C347.203 463.791 345.869 464.184 344.471 464.353C344.459 464.354 344.447 464.356 344.435 464.356ZM351.275 460.96C351.07 460.975 350.861 460.907 350.7 460.755C350.397 460.468 350.384 459.99 350.671 459.687C350.955 459.386 351.226 459.064 351.474 458.73C351.477 458.726 351.48 458.722 351.483 458.718C352.037 458.003 352.621 457.331 353.218 456.723C353.511 456.426 353.989 456.421 354.287 456.714C354.585 457.006 354.589 457.485 354.296 457.783C353.742 458.347 353.199 458.971 352.683 459.637C352.4 460.018 352.092 460.384 351.768 460.726C351.633 460.868 351.456 460.947 351.275 460.96ZM356.815 455.536C356.549 455.556 356.281 455.433 356.126 455.194C355.898 454.844 355.998 454.376 356.348 454.149C357.315 453.52 358.339 452.997 359.391 452.593C359.598 452.513 359.808 452.438 360.015 452.368C360.411 452.237 360.839 452.45 360.971 452.846C361.103 453.242 360.89 453.67 360.494 453.802C360.308 453.864 360.119 453.932 359.933 454.004C358.979 454.37 358.05 454.845 357.171 455.416C357.06 455.488 356.938 455.527 356.815 455.536ZM368.02 453.266C367.99 453.268 367.96 453.269 367.929 453.267C367.623 453.253 367.312 453.233 366.982 453.211C366.123 453.155 365.148 453.09 364.108 453.138C363.691 453.157 363.337 452.835 363.318 452.418C363.299 452.001 363.618 451.648 364.038 451.628C365.163 451.577 366.182 451.644 367.081 451.703C367.404 451.724 367.708 451.744 367.999 451.757C368.416 451.777 368.738 452.131 368.719 452.547C368.701 452.933 368.397 453.239 368.02 453.266ZM371.876 452.9C371.515 452.927 371.177 452.69 371.088 452.326C370.988 451.921 371.236 451.512 371.642 451.413C372.816 451.124 373.924 450.672 375.027 450.03C375.388 449.82 375.851 449.942 376.061 450.303C376.271 450.664 376.148 451.126 375.788 451.336C374.557 452.052 373.319 452.557 372.002 452.88C371.96 452.891 371.917 452.897 371.876 452.9ZM378.579 449.117C378.355 449.133 378.126 449.05 377.964 448.871C377.683 448.562 377.707 448.084 378.016 447.803C378.846 447.052 379.713 446.158 380.667 445.07C380.942 444.756 381.419 444.725 381.734 445C382.047 445.275 382.079 445.753 381.803 446.067C380.81 447.199 379.904 448.133 379.031 448.923C378.901 449.041 378.742 449.105 378.579 449.117ZM383.786 443.331C383.601 443.345 383.41 443.29 383.255 443.164C382.93 442.901 382.881 442.425 383.144 442.101L383.333 441.868C384.08 440.948 384.853 439.996 385.64 439.079C385.911 438.762 386.388 438.725 386.705 438.997C387.022 439.269 387.058 439.746 386.787 440.063C386.013 440.965 385.247 441.908 384.506 442.821L384.317 443.054C384.181 443.222 383.986 443.316 383.786 443.331ZM434.854 436.092C433.748 436.173 432.599 436.171 431.439 436.086C431.023 436.056 430.71 435.694 430.74 435.278C430.771 434.861 431.133 434.548 431.549 434.579C432.834 434.673 434.097 434.659 435.308 434.535C435.315 434.534 435.323 434.534 435.33 434.533C435.736 434.503 436.095 434.802 436.136 435.21C436.179 435.626 435.876 435.996 435.461 436.039C435.262 436.059 435.058 436.077 434.854 436.092ZM420.556 437.04C419.552 437.114 418.588 437.111 417.61 437.032C417.194 436.999 416.884 436.635 416.918 436.218C416.951 435.802 417.317 435.492 417.732 435.526C418.632 435.598 419.519 435.601 420.445 435.533C420.776 435.509 421.11 435.476 421.468 435.433C421.48 435.432 421.492 435.43 421.503 435.43C421.904 435.4 422.26 435.691 422.308 436.093C422.358 436.508 422.063 436.884 421.648 436.934C421.267 436.98 420.91 437.015 420.556 437.04ZM439.247 435.253C438.908 435.278 438.584 435.07 438.474 434.733C438.345 434.336 438.562 433.91 438.958 433.78C439.747 433.523 440.503 433.207 441.202 432.84C441.536 432.666 441.911 432.451 442.317 432.203C442.672 431.985 443.138 432.098 443.356 432.454C443.573 432.81 443.461 433.275 443.105 433.493C442.67 433.758 442.267 433.989 441.904 434.179C441.129 434.585 440.296 434.934 439.426 435.217C439.367 435.237 439.307 435.248 439.247 435.253ZM425.44 436.212C425.087 436.238 424.753 436.01 424.657 435.655C424.565 435.318 424.717 434.972 425.006 434.805C424.549 434.656 424.096 434.495 423.649 434.324C423.259 434.174 423.064 433.738 423.214 433.348C423.363 432.958 423.8 432.763 424.19 432.913C425.283 433.331 426.408 433.68 427.539 433.951C427.942 433.792 428.338 433.622 428.725 433.441C429.103 433.265 429.553 433.428 429.729 433.807C429.906 434.185 429.742 434.634 429.364 434.811C428.951 435.004 428.529 435.185 428.099 435.355C427.987 435.439 427.852 435.492 427.709 435.504C427.017 435.763 426.306 435.992 425.583 436.187C425.536 436.2 425.488 436.208 425.44 436.212ZM413.892 436.381C413.811 436.387 413.728 436.38 413.645 436.358C412.44 436.043 411.275 435.629 409.87 435.016C409.487 434.849 409.313 434.404 409.48 434.021C409.647 433.638 410.092 433.464 410.474 433.631C411.805 434.211 412.901 434.602 414.028 434.896C414.431 435.002 414.673 435.415 414.568 435.818C414.484 436.14 414.205 436.358 413.892 436.381ZM388.924 437.471C388.708 437.487 388.487 437.411 388.325 437.243C388.035 436.943 388.043 436.465 388.343 436.175C389.388 435.163 390.399 434.325 391.433 433.613C391.777 433.376 392.248 433.463 392.484 433.807C392.721 434.15 392.634 434.621 392.29 434.858C391.325 435.522 390.378 436.308 389.394 437.26C389.261 437.389 389.094 437.459 388.924 437.471ZM432.454 432.908C432.203 432.927 431.947 432.819 431.788 432.6C431.542 432.263 431.616 431.79 431.953 431.544C432.968 430.804 433.898 429.963 434.718 429.044C434.995 428.732 435.473 428.705 435.785 428.983C436.096 429.26 436.124 429.738 435.846 430.05C434.955 431.048 433.945 431.962 432.844 432.765C432.725 432.851 432.59 432.898 432.454 432.908ZM445.997 431.423C445.744 431.442 445.488 431.333 445.329 431.112C445.085 430.774 445.161 430.301 445.499 430.057C446.531 429.312 447.55 428.518 448.527 427.696C448.847 427.427 449.323 427.468 449.592 427.788C449.861 428.108 449.819 428.584 449.5 428.853C448.494 429.699 447.446 430.516 446.384 431.282C446.266 431.367 446.132 431.414 445.997 431.423ZM420.448 432.723C420.305 432.734 420.158 432.704 420.024 432.629C419.323 432.236 418.639 431.811 417.992 431.366C417.6 431.096 417.155 430.791 416.688 430.448C416.351 430.202 416.278 429.729 416.525 429.392C416.771 429.056 417.244 428.982 417.581 429.229C418.03 429.558 418.465 429.857 418.849 430.121C419.458 430.54 420.102 430.94 420.762 431.31C421.127 431.514 421.257 431.974 421.053 432.338C420.924 432.568 420.692 432.705 420.448 432.723ZM406.681 433.469C406.564 433.477 406.444 433.459 406.329 433.41C404.973 432.831 403.881 432.486 402.79 432.294C402.379 432.221 402.105 431.829 402.177 431.418C402.25 431.007 402.642 430.733 403.053 430.805C404.262 431.019 405.456 431.393 406.923 432.02C407.307 432.184 407.485 432.628 407.321 433.012C407.206 433.281 406.954 433.449 406.681 433.469ZM395.337 433.159C395.015 433.182 394.702 432.996 394.578 432.679C394.427 432.29 394.619 431.852 395.008 431.701C396.057 431.292 397.159 430.991 398.281 430.808C398.506 430.771 398.733 430.739 398.954 430.712C399.369 430.659 399.745 430.956 399.795 431.371C399.846 431.785 399.551 432.162 399.137 432.212C398.936 432.237 398.73 432.266 398.524 432.3C397.506 432.466 396.508 432.738 395.557 433.109C395.485 433.137 395.411 433.153 395.337 433.159ZM451.957 426.414C451.742 426.429 451.522 426.354 451.36 426.188C451.069 425.889 451.075 425.41 451.374 425.119C452.294 424.223 453.16 423.313 454.023 422.338C454.3 422.026 454.778 421.997 455.09 422.274C455.402 422.55 455.431 423.028 455.155 423.34C454.267 424.343 453.375 425.279 452.429 426.201C452.296 426.331 452.128 426.401 451.957 426.414ZM437.621 427.151C437.472 427.162 437.317 427.129 437.179 427.046C436.821 426.832 436.704 426.368 436.918 426.009C437.578 424.907 438.109 423.769 438.495 422.629C438.629 422.233 439.058 422.022 439.454 422.156C439.849 422.29 440.06 422.719 439.927 423.114C439.506 424.355 438.93 425.59 438.215 426.785C438.084 427.005 437.858 427.134 437.621 427.151ZM414.262 428.031C414.041 428.047 413.815 427.966 413.652 427.791C412.708 426.772 411.909 425.656 411.279 424.474C411.083 424.106 411.222 423.648 411.591 423.452C411.959 423.255 412.417 423.395 412.613 423.763C413.182 424.83 413.905 425.84 414.761 426.763C415.045 427.07 415.026 427.548 414.72 427.831C414.59 427.953 414.427 428.019 414.262 428.031ZM457.291 420.734C457.073 420.75 456.85 420.671 456.688 420.501C456.4 420.198 456.413 419.719 456.715 419.432C457.579 418.612 458.593 417.744 459.728 416.85C460.056 416.592 460.531 416.649 460.79 416.977C461.048 417.305 460.991 417.78 460.663 418.038C459.564 418.903 458.586 419.741 457.756 420.528C457.624 420.653 457.459 420.722 457.291 420.734ZM440.055 419.82C440.018 419.823 439.98 419.823 439.942 419.82C439.525 419.789 439.214 419.426 439.245 419.009C439.296 418.339 439.297 417.66 439.248 416.993C439.217 416.57 439.165 416.143 439.094 415.722C439.072 415.592 439.049 415.464 439.024 415.338C438.942 414.928 439.208 414.53 439.618 414.449C440.028 414.368 440.425 414.634 440.506 415.043C440.534 415.184 440.56 415.326 440.584 415.47C440.663 415.937 440.721 416.413 440.755 416.883C440.809 417.624 440.808 418.378 440.752 419.124C440.723 419.501 440.422 419.793 440.055 419.82ZM410.616 421.241C410.256 421.267 409.919 421.032 409.828 420.671C409.599 419.755 409.448 418.829 409.382 417.918C409.35 417.483 409.337 417.046 409.343 416.619C409.349 416.201 409.694 415.867 410.109 415.874C410.527 415.88 410.86 416.223 410.854 416.64C410.849 417.023 410.861 417.416 410.889 417.807C410.95 418.631 411.086 419.471 411.295 420.303C411.396 420.708 411.15 421.118 410.746 421.22C410.702 421.231 410.659 421.238 410.616 421.241ZM463.386 415.879C463.13 415.898 462.87 415.785 462.711 415.559C462.472 415.217 462.555 414.746 462.897 414.506C463.899 413.804 464.996 413.067 466.157 412.317C466.508 412.09 466.976 412.191 467.202 412.541C467.429 412.892 467.328 413.36 466.978 413.586C465.833 414.326 464.751 415.052 463.764 415.744C463.648 415.825 463.518 415.869 463.386 415.879ZM469.928 411.634C469.654 411.654 469.379 411.525 469.227 411.274C469.01 410.918 469.122 410.453 469.479 410.236C470.715 409.481 471.87 408.797 472.836 408.228C473.196 408.015 473.659 408.135 473.871 408.495C474.083 408.854 473.963 409.318 473.604 409.53C472.642 410.096 471.494 410.777 470.266 411.526C470.159 411.59 470.044 411.626 469.928 411.634ZM438.564 412.269C438.267 412.291 437.972 412.134 437.832 411.851C437.285 410.749 436.576 409.687 435.781 408.781C435.506 408.467 435.538 407.989 435.852 407.714C436.166 407.439 436.643 407.471 436.918 407.785C437.797 408.788 438.581 409.962 439.185 411.179C439.371 411.553 439.218 412.006 438.844 412.192C438.754 412.237 438.659 412.262 438.564 412.269ZM410.779 413.553C410.684 413.56 410.586 413.549 410.49 413.518C410.093 413.388 409.876 412.962 410.005 412.565C410.054 412.417 410.105 412.268 410.159 412.118C410.576 410.978 411.15 409.895 411.866 408.899C412.11 408.561 412.582 408.483 412.921 408.727C413.259 408.971 413.337 409.443 413.093 409.782C412.458 410.666 411.948 411.626 411.579 412.637C411.531 412.769 411.485 412.902 411.442 413.033C411.344 413.334 411.076 413.531 410.779 413.553ZM476.62 407.624C476.356 407.643 476.089 407.523 475.933 407.285C475.704 406.936 475.801 406.468 476.15 406.238C477.177 405.564 478.16 404.775 479.072 403.893C479.373 403.604 479.851 403.611 480.141 403.912C480.431 404.212 480.423 404.69 480.123 404.98C479.143 405.927 478.085 406.775 476.979 407.502C476.868 407.575 476.745 407.615 476.62 407.624ZM433.474 406.49C433.314 406.501 433.15 406.463 433.005 406.368C431.993 405.706 430.874 405.168 429.678 404.768C429.283 404.636 429.069 404.208 429.201 403.812C429.333 403.416 429.761 403.203 430.158 403.335C431.476 403.775 432.712 404.37 433.833 405.104C434.182 405.332 434.28 405.8 434.052 406.15C433.917 406.355 433.7 406.473 433.474 406.49ZM415.231 407.302C414.988 407.319 414.742 407.22 414.58 407.014C414.323 406.686 414.38 406.211 414.708 405.953C415.762 405.127 416.939 404.424 418.205 403.864C418.587 403.696 419.033 403.868 419.202 404.25C419.37 404.632 419.198 405.078 418.816 405.247C417.664 405.756 416.596 406.394 415.641 407.143C415.519 407.239 415.375 407.291 415.231 407.302ZM482.213 402.263C482.039 402.276 481.859 402.228 481.707 402.116C481.373 401.867 481.303 401.393 481.552 401.058C482.277 400.085 482.966 399.012 483.602 397.869C483.804 397.504 484.264 397.373 484.629 397.575C484.994 397.778 485.125 398.239 484.923 398.603C484.255 399.804 483.529 400.934 482.765 401.96C482.628 402.144 482.425 402.248 482.213 402.263ZM426.167 404.01C426.125 404.013 426.083 404.012 426.041 404.008C424.923 403.904 424.121 403.948 423.901 403.964L423.886 403.965C423.382 404.002 422.869 404.067 422.36 404.158C421.951 404.232 421.557 403.959 421.483 403.549C421.409 403.138 421.682 402.745 422.092 402.671C422.653 402.57 423.219 402.498 423.775 402.457L423.792 402.456C424.111 402.433 424.981 402.392 426.18 402.503C426.596 402.542 426.902 402.91 426.863 403.326C426.828 403.699 426.528 403.983 426.167 404.01ZM486.019 395.49C485.903 395.498 485.783 395.48 485.668 395.432C485.284 395.268 485.105 394.825 485.268 394.441C485.747 393.314 486.199 392.107 486.611 390.855C486.741 390.458 487.168 390.242 487.564 390.373C487.961 390.503 488.177 390.93 488.046 391.327C487.621 392.62 487.155 393.866 486.659 395.032C486.545 395.301 486.292 395.47 486.019 395.49ZM488.468 388.105C488.389 388.111 488.308 388.104 488.227 388.084C487.822 387.981 487.578 387.569 487.681 387.165C487.986 385.966 488.27 384.701 488.524 383.407C488.604 382.997 489.001 382.73 489.411 382.81C489.82 382.891 490.087 383.288 490.007 383.697C489.748 385.02 489.458 386.312 489.145 387.538C489.063 387.861 488.784 388.082 488.468 388.105ZM489.979 380.467C489.924 380.471 489.868 380.469 489.812 380.461C489.399 380.4 489.114 380.016 489.175 379.603C489.231 379.226 489.285 378.844 489.338 378.457C489.393 378.044 489.774 377.753 490.188 377.81C490.601 377.866 490.891 378.246 490.835 378.66C490.782 379.053 490.727 379.441 490.67 379.824C490.617 380.181 490.324 380.442 489.979 380.467Z" fill="#0E0F0C" fill-opacity="0.2"/>
<path d="M488.906 377.375C500.004 377.375 509 368.379 509 357.281C509 346.184 500.004 337.188 488.906 337.188C477.809 337.188 468.812 346.184 468.812 357.281C468.812 368.379 477.809 377.375 488.906 377.375Z" fill="#0E0F0C" fill-opacity="0.2"/>
<path d="M496.181 367.903L496.207 367.876L496.233 367.903L499.579 364.555L499.554 364.528L496.207 361.183L492.284 357.26L499.579 349.965L496.233 346.617L488.939 353.912L481.644 346.617L478.297 349.965L485.592 357.26L481.669 361.183L478.323 364.528L478.297 364.555L481.644 367.903L481.669 367.876L481.695 367.903L485.016 364.528L488.939 360.606L492.86 364.528L496.181 367.903Z" fill="white"/>
<path d="M212.57 339.541C225.829 339.541 236.578 349.521 236.578 361.831C236.578 374.142 225.829 384.12 212.57 384.12C199.311 384.12 188.562 374.142 188.562 361.831C188.563 349.521 199.311 339.541 212.57 339.541Z" fill="#C0C0BF"/>
<path d="M212.573 385.003C198.849 385.003 187.684 374.609 187.684 361.832C187.684 349.055 198.849 338.66 212.573 338.66C226.297 338.66 237.463 349.055 237.463 361.832C237.463 374.609 226.297 385.003 212.573 385.003ZM212.573 340.424C199.821 340.424 189.447 350.028 189.447 361.832C189.447 373.636 199.821 383.239 212.573 383.239C225.325 383.239 235.699 373.636 235.699 361.832C235.699 350.028 225.325 340.424 212.573 340.424Z" fill="#C0C0BF"/>
<path d="M332.61 339.541C345.869 339.541 356.616 349.521 356.616 361.831C356.616 374.142 345.869 384.12 332.609 384.12C319.351 384.12 308.602 374.142 308.602 361.831C308.602 349.521 319.351 339.541 332.61 339.541Z" fill="#C0C0BF"/>
<path d="M332.608 385.003C318.884 385.003 307.719 374.609 307.719 361.832C307.719 349.055 318.884 338.66 332.608 338.66C346.331 338.66 357.496 349.055 357.496 361.832C357.496 374.609 346.331 385.003 332.608 385.003ZM332.608 340.424C319.857 340.424 309.482 350.028 309.482 361.833C309.482 373.636 319.856 383.24 332.608 383.24C345.359 383.24 355.733 373.636 355.733 361.833C355.733 350.028 345.359 340.424 332.608 340.424Z" fill="#C0C0BF"/>
<path d="M412.571 162.332L140.785 161.894L133.903 136.133C131.629 127.62 123.918 121.699 115.107 121.699L72.5167 121.703C66.853 121.703 62.2617 126.294 62.2617 131.958C62.2617 137.621 66.853 142.213 72.5167 142.213L113.089 142.048L121.354 170.008L159.884 315.691C161.482 321.734 166.949 325.943 173.2 325.943H204.061H328.492L376.335 326.353C382.629 326.407 388.159 322.187 389.769 316.102L425.864 179.627C428.173 170.899 421.6 162.347 412.571 162.332Z" fill="#C0C0BF"/>
<path d="M376.454 327.234C376.411 327.234 376.369 327.234 376.326 327.234L328.484 326.823L173.198 326.823C166.555 326.823 160.729 322.338 159.031 315.915L120.504 170.245L112.43 142.931L72.5192 143.093C66.3749 143.093 61.3789 138.097 61.3789 131.956C61.3789 125.816 66.3752 120.82 72.5156 120.82C72.5152 120.82 72.5159 120.82 72.5156 120.82L115.105 120.816C124.301 120.816 132.381 127.02 134.754 135.904L141.461 161.012L412.571 161.449C417.15 161.457 421.377 163.543 424.167 167.174C426.957 170.804 427.886 175.425 426.715 179.852L390.62 316.327C388.917 322.765 383.103 327.234 376.454 327.234ZM113.088 141.165C113.479 141.165 113.823 141.422 113.934 141.797L122.198 169.757C122.201 169.766 122.203 169.774 122.205 169.782L160.735 315.465C162.23 321.114 167.355 325.06 173.199 325.06L328.491 325.06L376.342 325.471C376.379 325.471 376.417 325.471 376.454 325.471C382.303 325.471 387.417 321.54 388.915 315.876L425.011 179.401C426.041 175.507 425.224 171.442 422.769 168.248C420.314 165.055 416.596 163.219 412.569 163.213L140.783 162.774C140.384 162.773 140.035 162.505 139.932 162.12L133.051 136.359C130.883 128.245 123.504 122.579 115.106 122.58L72.5158 122.583C67.3473 122.583 63.1425 126.788 63.1423 131.956C63.1423 137.125 67.3472 141.33 72.5157 141.33L113.085 141.165C113.086 141.165 113.087 141.165 113.088 141.165Z" fill="#0E0F0C" fill-opacity="0.4"/>
<path d="M193.519 231.684H332.092C337.444 231.684 341.783 227.345 341.783 221.993C341.783 216.641 337.444 212.303 332.092 212.303L193.519 212.303C188.167 212.303 183.828 216.641 183.828 221.993C183.828 227.345 188.166 231.684 193.519 231.684Z" fill="white"/>
<path d="M182.949 221.994C182.949 216.165 187.692 211.422 193.521 211.422H332.095C337.924 211.422 342.667 216.165 342.667 221.994C342.667 227.824 337.924 232.566 332.095 232.566L193.521 232.566C187.692 232.566 182.949 227.823 182.949 221.994ZM193.521 213.185C188.664 213.185 184.713 217.137 184.713 221.994C184.713 226.851 188.664 230.803 193.521 230.803L332.095 230.803C336.952 230.803 340.904 226.851 340.904 221.994C340.904 217.137 336.952 213.185 332.095 213.185H193.521Z" fill="#0E0F0C" fill-opacity="0.4"/>
<path d="M217.749 276.26H356.323C361.675 276.26 366.013 271.921 366.013 266.569C366.013 261.217 361.674 256.879 356.323 256.879H217.749C212.397 256.879 208.058 261.218 208.059 266.569C208.059 271.921 212.397 276.26 217.749 276.26Z" fill="white"/>
<path d="M207.172 266.57C207.172 263.746 208.271 261.092 210.268 259.095C212.265 257.098 214.92 255.998 217.744 255.998L356.318 255.998C359.142 255.998 361.797 257.098 363.793 259.095C365.79 261.091 366.89 263.746 366.89 266.57C366.89 269.394 365.79 272.049 363.793 274.046C361.797 276.043 359.142 277.142 356.318 277.142H217.744C211.915 277.143 207.172 272.4 207.172 266.57ZM217.744 257.762C215.391 257.762 213.179 258.678 211.515 260.342C209.851 262.005 208.935 264.217 208.935 266.57C208.935 271.428 212.887 275.379 217.744 275.379H356.318C358.671 275.379 360.883 274.463 362.547 272.799C364.21 271.135 365.127 268.923 365.127 266.57C365.127 264.217 364.21 262.005 362.547 260.342C360.883 258.678 358.671 257.762 356.318 257.762H217.744Z" fill="#0E0F0C" fill-opacity="0.4"/>
<path d="M404.096 213.578C398.496 213.578 393.064 212.481 387.951 210.319C383.012 208.23 378.576 205.239 374.766 201.429C370.956 197.618 367.965 193.182 365.876 188.243C363.714 183.131 362.617 177.699 362.617 172.098C362.617 166.498 363.714 161.066 365.876 155.953C367.965 151.014 370.956 146.578 374.766 142.768C378.576 138.958 383.012 135.967 387.952 133.878C393.064 131.715 398.496 130.619 404.096 130.619C409.697 130.619 415.129 131.715 420.241 133.878C425.18 135.967 429.617 138.958 433.427 142.768C437.237 146.578 440.228 151.014 442.317 155.953C444.479 161.066 445.576 166.498 445.576 172.098C445.576 177.699 444.479 183.131 442.317 188.243C440.228 193.182 437.237 197.618 433.427 201.429C429.617 205.239 425.18 208.23 420.241 210.319C415.129 212.481 409.697 213.578 404.096 213.578Z" fill="#0E0F0C"/>
<path d="M404.095 214.46C398.376 214.46 392.828 213.34 387.607 211.132C382.563 208.998 378.032 205.944 374.142 202.053C370.251 198.162 367.196 193.631 365.063 188.587C362.854 183.366 361.734 177.819 361.734 172.099C361.734 166.379 362.854 160.832 365.063 155.611C367.196 150.567 370.251 146.036 374.142 142.145C378.033 138.255 382.563 135.2 387.607 133.067C392.828 130.858 398.376 129.738 404.095 129.738C409.815 129.738 415.362 130.858 420.584 133.067C425.628 135.2 430.158 138.255 434.049 142.145C437.94 146.036 440.995 150.567 443.128 155.611C445.336 160.832 446.456 166.38 446.456 172.099C446.456 177.819 445.336 183.366 443.128 188.587C440.995 193.631 437.94 198.162 434.049 202.053C430.158 205.944 425.628 208.998 420.584 211.132C415.362 213.34 409.815 214.46 404.095 214.46ZM404.095 131.501C398.613 131.501 393.297 132.574 388.294 134.69C383.46 136.735 379.118 139.663 375.388 143.392C371.659 147.122 368.731 151.464 366.687 156.298C364.571 161.3 363.498 166.617 363.498 172.099C363.498 177.581 364.571 182.898 366.687 187.9C368.731 192.734 371.659 197.076 375.388 200.806C379.118 204.535 383.46 207.463 388.294 209.508C393.297 211.624 398.613 212.697 404.095 212.697C409.577 212.697 414.894 211.624 419.897 209.508C424.731 207.463 429.073 204.535 432.802 200.806C436.532 197.076 439.459 192.734 441.504 187.901C443.62 182.898 444.693 177.581 444.693 172.099C444.693 166.617 443.62 161.301 441.504 156.298C439.459 151.464 436.532 147.122 432.802 143.392C429.073 139.663 424.731 136.735 419.897 134.691C414.894 132.574 409.577 131.501 404.095 131.501Z" fill="#0E0F0C"/>
<path d="M411.393 185.752L417.646 192.007L417.695 191.958L417.743 192.007L423.995 185.752L423.947 185.703L417.695 179.452L410.366 172.123L423.995 158.495L417.743 152.24L404.116 165.869L390.487 152.24L384.234 158.495L397.863 172.123L390.534 179.452L384.283 185.703L384.234 185.752L390.487 192.007L390.534 191.958L390.583 192.007L396.787 185.703L404.116 178.374L411.393 185.752Z" fill="white"/>
</svg>
