<svg width="25" height="25" viewBox="0 0 25 25" fill="none" xmlns="http://www.w3.org/2000/svg">
<path d="M16.4562 22.4373V14.6977H19.0477L19.4356 11.6889H16.4562V9.76798C16.4562 8.89686 16.698 8.30319 17.9472 8.30319L19.5406 8.30245V5.61143C19.2649 5.57483 18.3192 5.49288 17.2189 5.49288C14.9217 5.49288 13.3491 6.89501 13.3491 9.47006V11.6889H10.751V14.6977H13.3491V22.4373H3.78689C3.17325 22.4373 2.67578 21.9398 2.67578 21.3261V3.54837C2.67578 2.93472 3.17325 2.43726 3.78689 2.43726H21.5647C22.1783 2.43726 22.6758 2.93472 22.6758 3.54837V21.3261C22.6758 21.9398 22.1783 22.4373 21.5647 22.4373H16.4562Z" fill="black"/>
</svg>
