<svg width="22" height="22" viewBox="0 0 22 22" fill="none" xmlns="http://www.w3.org/2000/svg">
<g clip-path="url(#clip0_547_159)">
<path d="M5.5349 13.1903L4.80392 15.9192L2.13221 15.9757C1.33375 14.4947 0.880859 12.8003 0.880859 10.9997C0.880859 9.2586 1.3043 7.61666 2.05489 6.1709H2.05546L4.43404 6.60698L5.476 8.97128C5.25792 9.60706 5.13906 10.2896 5.13906 10.9997C5.13914 11.7705 5.27876 12.509 5.5349 13.1903Z" fill="#FBBB00"/>
<path d="M21.697 9.03809C21.8176 9.67325 21.8805 10.3292 21.8805 10.9996C21.8805 11.7514 21.8015 12.4846 21.6509 13.1919C21.1398 15.5989 19.8042 17.7006 17.954 19.1879L17.9534 19.1873L14.9575 19.0345L14.5334 16.3875C15.7611 15.6675 16.7206 14.5408 17.226 13.1919H11.6113V9.03809H17.3079H21.697Z" fill="#518EF8"/>
<path d="M17.9543 19.1875L17.9549 19.1881C16.1555 20.6344 13.8697 21.4998 11.3815 21.4998C7.38281 21.4998 3.90629 19.2648 2.13281 15.9758L5.53551 13.1904C6.42223 15.5569 8.70512 17.2416 11.3815 17.2416C12.5318 17.2416 13.6096 16.9306 14.5343 16.3877L17.9543 19.1875Z" fill="#28B446"/>
<path d="M18.0828 2.9173L14.6812 5.70209C13.7241 5.10384 12.5928 4.75824 11.3807 4.75824C8.64372 4.75824 6.31814 6.52015 5.47584 8.97153L2.05526 6.17115H2.05469C3.8022 2.80192 7.32257 0.5 11.3807 0.5C13.9283 0.5 16.2643 1.40751 18.0828 2.9173Z" fill="#F14336"/>
</g>
<defs>
<clipPath id="clip0_547_159">
<rect width="21" height="21" fill="white" transform="translate(0.880859 0.5)"/>
</clipPath>
</defs>
</svg>
