<svg width="32" height="32" viewBox="0 0 32 32" fill="none" xmlns="http://www.w3.org/2000/svg">
<path d="M25.1721 17.2577L16.0102 27L6.84826 17.2577C6.24394 16.6263 5.76794 15.8674 5.45021 15.0289C5.13248 14.1903 4.97991 13.2901 5.00212 12.3851C5.02432 11.4801 5.22081 10.5899 5.57923 9.77042C5.93763 8.95095 6.45018 8.22003 7.08461 7.6237C7.71905 7.02736 8.46161 6.57853 9.26555 6.30545C10.0695 6.03237 10.9174 5.94097 11.7558 6.037C12.5943 6.13303 13.4051 6.41441 14.1373 6.86341C14.8695 7.31243 15.5072 7.91935 16.0102 8.64596C16.5153 7.92463 17.1537 7.32301 17.8855 6.87876C18.6171 6.43452 19.4264 6.1572 20.2624 6.06417C21.0985 5.97114 21.9436 6.06441 22.7446 6.33812C23.5454 6.61183 24.2852 7.06011 24.9174 7.65489C25.5497 8.24967 26.0607 8.97815 26.4186 9.79475C26.7765 10.6113 26.9736 11.4985 26.9975 12.4006C27.0215 13.3027 26.8716 14.2004 26.5575 15.0375C26.2434 15.8747 25.7718 16.6331 25.1721 17.2656" stroke="black" stroke-width="1.5" stroke-linecap="round" stroke-linejoin="round"/>
</svg>
