<svg width="25" height="25" viewBox="0 0 25 25" fill="none" xmlns="http://www.w3.org/2000/svg">
<path d="M19.7149 19.4806H16.7532V14.8397C16.7532 13.733 16.7308 12.3089 15.2099 12.3089C13.6658 12.3089 13.4299 13.5131 13.4299 14.758V19.4806H10.4682V9.93726H13.3132V11.238H13.3516C13.7491 10.488 14.7158 9.69642 16.1599 9.69642C19.1608 9.69642 19.7158 11.6715 19.7158 14.2423L19.7149 19.4806ZM7.12328 8.63142C6.16994 8.63142 5.40411 7.85976 5.40411 6.91059C5.40411 5.96226 6.17078 5.19142 7.12328 5.19142C8.07328 5.19142 8.84328 5.96226 8.84328 6.91059C8.84328 7.85976 8.07244 8.63142 7.12328 8.63142ZM8.60828 19.4806H5.63828V9.93726H8.60828V19.4806ZM21.1966 2.43726H4.15161C3.33578 2.43726 2.67578 3.08226 2.67578 3.87809V20.9965C2.67578 21.793 3.33578 22.4373 4.15161 22.4373H21.1941C22.0091 22.4373 22.6758 21.793 22.6758 20.9965V3.87809C22.6758 3.08226 22.0091 2.43726 21.1941 2.43726H21.1966Z" fill="black"/>
</svg>
