<svg width="25" height="25" viewBox="0 0 25 25" fill="none" xmlns="http://www.w3.org/2000/svg">
<path d="M18.5033 15.6748L17.2083 14.3798L18.5033 13.0848C20.2913 11.2968 20.2913 8.39775 18.5033 6.60972C16.7153 4.82167 13.8163 4.82167 12.0283 6.60972L10.7332 7.90472L9.43824 6.60972L10.7332 5.3147C13.2365 2.81144 17.2951 2.81144 19.7983 5.3147C22.3016 7.81795 22.3016 11.8765 19.7983 14.3798L18.5033 15.6748ZM15.9132 18.2649L14.6182 19.5599C12.1151 22.0631 8.05647 22.0631 5.55322 19.5599C3.04997 17.0566 3.04997 12.998 5.55322 10.4948L6.84822 9.19973L8.14324 10.4948L6.84822 11.7898C5.06019 13.5778 5.06019 16.4768 6.84822 18.2649C8.63626 20.0529 11.5352 20.0529 13.3233 18.2649L14.6182 16.9698L15.9132 18.2649ZM15.2657 8.55223L16.5608 9.84724L10.0858 16.3223L8.79074 15.0273L15.2657 8.55223Z" fill="black"/>
</svg>
