<svg width="221" height="47" viewBox="0 0 221 47" fill="none" xmlns="http://www.w3.org/2000/svg">
<g clip-path="url(#clip0_3636_4180)">
<path d="M33.9124 22.1705L32.9835 23.7954L31.8347 25.8038L30.5176 28.1094L27.11 34.0718H27.1074V34.8412L27.0996 46.9485L37.2217 47.0033L37.245 16.3359L33.9124 22.1705Z" fill="#D9E009"/>
<path d="M48.4548 9.77148L38.8346 15.4026L37.409 16.2372L37.2485 16.3311L37.2459 16.3337L37.2227 47.0011L37.233 34.127L37.2382 28.9732V28.1437V28.1385L37.2459 28.1333L38.9019 27.1657H38.9045L42.3795 25.1313L49.0525 21.2241L53.4253 18.6655L48.4548 9.77148Z" fill="#C1C108"/>
<path d="M22.9068 28.1072L21.5898 25.8016L20.4409 23.7932L19.512 22.1683L16.1794 16.3337L16.1768 16.3311L16.0164 16.2372L14.5881 15.4026L4.97051 9.77148L0 18.6603L26.3093 34.0618L22.9068 28.1072Z" fill="#D9E009"/>
<path d="M26.317 34.8389V34.0695H26.3144L26.3093 34.0617L0 18.6602V18.6654L4.3728 21.224L11.0459 25.1311L14.5208 27.1655L16.1794 28.1332L16.1871 28.1384V28.1436V28.973L16.1897 34.1269L16.2001 47.001L23.432 46.9619L26.3248 46.9462L26.3196 38.8738L26.317 34.8389Z" fill="#C1C108"/>
<path d="M23.3628 15.4059L25.2232 15.4085H27.5234L30.1626 15.4111L36.9884 15.4189H36.9909L37.6507 15.0355L48.0679 9.01051L43.0689 0.134766L16.6846 15.4006L23.3628 15.4059Z" fill="#D9E009"/>
<path d="M5.45605 8.87836L15.0917 14.4756L16.5226 15.3076L16.683 15.3989V15.4015H16.6856L43.0699 0.135627L31.993 6.54401L27.5581 9.10788L26.8466 9.52259H26.8414L26.8336 9.51998L25.1751 8.55494L21.6924 6.53097L15.0064 2.64734L10.4085 0L5.45605 8.87836Z" fill="#C1C108"/>
<path d="M66.8425 37.075V19.3913H60.4463V15.166H78.1135V19.3913H71.7483V37.075H66.8425Z" fill="#0E0F0C"/>
<path d="M80.3184 37.0734V14.9141H84.8826V23.4273C85.9176 21.8415 87.5011 21.0486 89.6332 21.0486C91.4134 21.0486 92.8313 21.5702 93.887 22.6135C94.9427 23.6568 95.4705 25.0548 95.4705 26.8075V37.0734H90.9373V27.9969C90.9373 27.1205 90.6889 26.4215 90.1921 25.8999C89.6953 25.3782 89.0226 25.1174 88.1739 25.1174C85.9797 25.1174 84.8826 26.8075 84.8826 30.1878V37.0734H80.3184Z" fill="#0E0F0C"/>
<path d="M114.037 28.7796C114.037 29.4681 114.016 30.0419 113.975 30.501H102.735C103.19 32.5041 104.411 33.5057 106.398 33.5057C108.075 33.5057 109.089 32.8275 109.441 31.4713L113.726 32.6293C113.271 34.1108 112.381 35.2636 111.056 36.0878C109.731 36.912 108.137 37.3241 106.274 37.3241C103.749 37.3241 101.777 36.5051 100.359 34.8671C98.9414 33.2292 98.2324 31.3356 98.2324 29.1865C98.2324 27.8093 98.4912 26.5261 99.0087 25.3367C99.5262 24.1474 100.39 23.1354 101.601 22.3008C102.812 21.4661 104.277 21.0488 105.995 21.0488C107.34 21.0488 108.546 21.2836 109.612 21.753C110.678 22.2225 111.522 22.8433 112.143 23.6153C112.764 24.3873 113.235 25.2115 113.555 26.0879C113.876 26.9643 114.037 27.8615 114.037 28.7796ZM102.797 27.2459H109.162C109.079 26.4113 108.774 25.7384 108.246 25.2272C107.718 24.716 106.968 24.4604 105.995 24.4604C104.297 24.4604 103.231 25.3889 102.797 27.2459Z" fill="#0E0F0C"/>
<path d="M116.8 37.0737V21.2992H121.364V23.4275C122.378 21.8417 123.848 21.0488 125.773 21.0488C128.112 21.0488 129.685 21.9878 130.493 23.8657C130.948 23.0519 131.641 22.379 132.573 21.8469C133.504 21.3149 134.57 21.0488 135.771 21.0488C137.448 21.0488 138.804 21.5496 139.839 22.5512C140.874 23.5527 141.391 24.8151 141.391 26.3383V37.0737H136.858V27.6841C136.858 26.8078 136.635 26.1244 136.19 25.6341C135.745 25.1437 135.119 24.8986 134.312 24.8986C133.38 24.8986 132.651 25.2637 132.123 25.994C131.595 26.7243 131.331 27.7259 131.331 28.9987V37.0737H126.829V27.6841C126.829 26.8286 126.606 26.1505 126.161 25.6497C125.716 25.1489 125.1 24.8986 124.314 24.8986C123.382 24.8986 122.658 25.2689 122.14 26.0097C121.623 26.7504 121.364 27.7467 121.364 28.9987V37.0737H116.8Z" fill="#0E0F0C"/>
<path d="M159.958 28.7796C159.958 29.4681 159.938 30.0419 159.896 30.501H148.656C149.112 32.5041 150.333 33.5057 152.32 33.5057C153.997 33.5057 155.011 32.8275 155.363 31.4713L159.648 32.6293C159.193 34.1108 158.303 35.2636 156.978 36.0878C155.653 36.912 154.059 37.3241 152.196 37.3241C149.671 37.3241 147.699 36.5051 146.281 34.8671C144.863 33.2292 144.154 31.3356 144.154 29.1865C144.154 27.8093 144.413 26.5261 144.931 25.3367C145.448 24.1474 146.312 23.1354 147.523 22.3008C148.734 21.4661 150.199 21.0488 151.917 21.0488C153.262 21.0488 154.468 21.2836 155.534 21.753C156.6 22.2225 157.443 22.8433 158.064 23.6153C158.685 24.3873 159.156 25.2115 159.477 26.0879C159.798 26.9643 159.958 27.8615 159.958 28.7796ZM148.719 27.2459H155.084C155.001 26.4113 154.696 25.7384 154.168 25.2272C153.64 24.716 152.89 24.4604 151.917 24.4604C150.219 24.4604 149.153 25.3889 148.719 27.2459Z" fill="#0E0F0C"/>
<path d="M161.171 43.0202L160.519 42.9889L160.457 40.6102C160.602 40.631 160.747 40.6415 160.892 40.6415C162.403 40.6415 163.158 39.6608 163.158 37.6994V21.299H165.798V38.0437C165.798 39.5043 165.373 40.6989 164.525 41.6274C163.676 42.5559 162.558 43.0202 161.171 43.0202ZM162.972 14.9141H166.015V18.2943H162.972V14.9141Z" fill="#0E0F0C"/>
<path d="M182.829 35.0236C181.328 36.5573 179.418 37.3241 177.1 37.3241C174.782 37.3241 172.877 36.5573 171.387 35.0236C169.897 33.49 169.151 31.5443 169.151 29.1865C169.151 26.8286 169.897 24.8829 171.387 23.3493C172.877 21.8156 174.782 21.0488 177.1 21.0488C179.418 21.0488 181.328 21.8156 182.829 23.3493C184.329 24.8829 185.08 26.8286 185.08 29.1865C185.08 31.5443 184.329 33.49 182.829 35.0236ZM173.312 33.3335C174.285 34.4081 175.548 34.9454 177.1 34.9454C178.653 34.9454 179.915 34.4081 180.888 33.3335C181.861 32.2589 182.347 30.8766 182.347 29.1865C182.347 27.4963 181.861 26.114 180.888 25.0394C179.915 23.9648 178.653 23.4275 177.1 23.4275C175.548 23.4275 174.285 23.9648 173.312 25.0394C172.339 26.114 171.853 27.4963 171.853 29.1865C171.853 30.8766 172.339 32.2589 173.312 33.3335Z" fill="#0E0F0C"/>
<path d="M188.274 14.9141H191.317V18.2943H188.274V14.9141ZM188.461 37.0734V21.299H191.1V37.0734H188.461Z" fill="#0E0F0C"/>
<path d="M195.386 37.0737V21.2992H198.025V24.2726C198.584 23.2919 199.329 22.5094 200.261 21.9252C201.192 21.3409 202.237 21.0488 203.397 21.0488C205.032 21.0488 206.372 21.56 207.417 22.5825C208.463 23.6049 208.985 24.9507 208.985 26.62V37.0737H206.346V27.1207C206.346 26.0357 206.025 25.1542 205.384 24.476C204.742 23.7979 203.883 23.4588 202.807 23.4588C201.337 23.4588 200.173 24.0587 199.314 25.2585C198.454 26.4583 198.025 28.091 198.025 30.1567V37.0737H195.386Z" fill="#0E0F0C"/>
<path d="M221.001 36.9477C220.318 37.1981 219.5 37.3233 218.548 37.3233C217.14 37.3233 216.017 36.9112 215.179 36.087C214.341 35.2628 213.922 34.0161 213.922 32.3468V23.6458H211.003V21.2984H213.922V16.5098H216.561V21.2984H220.752V23.6458H216.561V32.4407C216.561 33.2545 216.768 33.87 217.182 34.2873C217.596 34.7047 218.155 34.9133 218.858 34.9133C219.624 34.9133 220.276 34.7777 220.815 34.5064L221.001 36.9477Z" fill="#0E0F0C"/>
</g>
<defs>
<clipPath id="clip0_3636_4180">
<rect width="221" height="47" fill="white"/>
</clipPath>
</defs>
</svg>
