<svg width="25" height="25" viewBox="0 0 25 25" fill="none" xmlns="http://www.w3.org/2000/svg">
<path d="M14.0475 2.53168C9.1009 1.84994 4.40961 4.92231 3.05642 9.72982C1.70323 14.5374 4.10289 19.6065 8.67849 21.6062C8.61842 20.8381 8.67313 20.0653 8.8408 19.3134C9.02542 18.4747 10.137 13.8505 10.137 13.8505C9.91549 13.3546 9.80471 12.8163 9.81237 12.2732C9.81237 10.7882 10.6693 9.68021 11.7355 9.68021C12.123 9.67444 12.4939 9.83754 12.7516 10.1271C13.0093 10.4166 13.1284 10.804 13.0778 11.1883C13.0778 12.0885 12.4994 13.4504 12.1986 14.7276C12.0772 15.2029 12.1889 15.7076 12.4995 16.0873C12.8101 16.4669 13.2827 16.6762 13.7725 16.6512C15.6702 16.6512 16.9433 14.2198 16.9433 11.3499C16.9433 9.14931 15.4856 7.50276 12.8001 7.50276C11.5018 7.45257 10.2397 7.93686 9.30801 8.84269C8.37635 9.74852 7.85662 10.9968 7.87001 12.2963C7.84141 13.0095 8.07144 13.709 8.51772 14.266C8.68939 14.3937 8.75563 14.6198 8.68003 14.82C8.63388 15.0046 8.51772 15.4432 8.47156 15.6048C8.4521 15.7153 8.38137 15.8101 8.28094 15.8601C8.18051 15.9102 8.06229 15.9097 7.96232 15.8587C6.57768 15.3047 5.92535 13.7812 5.92535 12.0424C5.92535 9.19548 8.31002 5.78696 13.0794 5.78696C16.8756 5.78696 19.3988 8.56456 19.3988 11.5345C19.3988 15.4432 17.2226 18.3824 14.0056 18.3824C13.0284 18.4134 12.1031 17.9434 11.5517 17.1359C11.5517 17.1359 10.9732 19.4519 10.8593 19.8904C10.6268 20.6472 10.2836 21.3654 9.84083 22.0217C10.7635 22.3016 11.7229 22.4417 12.6871 22.4373C15.3394 22.439 17.8836 21.3857 19.7587 19.5093C21.6338 17.633 22.6857 15.0877 22.6827 12.4348C22.6798 7.44032 18.9941 3.21342 14.0475 2.53168Z" fill="black"/>
</svg>
