<svg width="14" height="15" viewBox="0 0 14 15" fill="none" xmlns="http://www.w3.org/2000/svg">
<path d="M13.2456 13.8484L9.57992 10.1827M9.57992 10.1827C10.0712 9.69145 10.4608 9.10825 10.7267 8.46641C10.9926 7.82456 11.1294 7.13663 11.1294 6.4419C11.1294 5.74717 10.9926 5.05924 10.7267 4.41739C10.4608 3.77555 10.0712 3.19235 9.57992 2.7011C9.08867 2.20985 8.50547 1.82017 7.86362 1.55431C7.22178 1.28845 6.53385 1.15161 5.83912 1.15161C5.14439 1.15161 4.45646 1.28845 3.81461 1.55431C3.17276 1.82017 2.58957 2.20985 2.09832 2.7011C1.1062 3.69322 0.548828 5.03883 0.548828 6.4419C0.548828 7.84497 1.1062 9.19058 2.09832 10.1827C3.09044 11.1748 4.43604 11.7322 5.83912 11.7322C7.24219 11.7322 8.5878 11.1748 9.57992 10.1827Z" stroke="#0E0F0C" stroke-linecap="round" stroke-linejoin="round"/>
</svg>
