<svg width="32" height="32" viewBox="0 0 32 32" fill="none" xmlns="http://www.w3.org/2000/svg">
<path d="M20.7189 14.1127V8.45078C20.7189 7.19942 20.2217 5.99931 19.337 5.11446C18.4521 4.22961 17.252 3.73251 16.0006 3.73251C14.7492 3.73251 13.5491 4.22961 12.6643 5.11446C11.7794 5.99931 11.2823 7.19942 11.2823 8.45078V14.1127M25.5706 11.6051L27.1596 26.7036C27.2477 27.5403 26.5934 28.2675 25.7517 28.2675H6.24952C6.05099 28.2678 5.85463 28.2262 5.6732 28.1455C5.49177 28.0649 5.32932 27.947 5.19643 27.7996C5.06354 27.652 4.96314 27.4782 4.9018 27.2894C4.84045 27.1006 4.8195 26.9009 4.84033 26.7036L6.4307 11.6051C6.46739 11.2573 6.63154 10.9353 6.89152 10.7014C7.1515 10.4674 7.48888 10.338 7.83863 10.3381H24.1626C24.8873 10.3381 25.4951 10.8854 25.5706 11.6051ZM11.7542 14.1127C11.7542 14.2378 11.7044 14.3578 11.616 14.4463C11.5275 14.5348 11.4075 14.5845 11.2823 14.5845C11.1572 14.5845 11.0372 14.5348 10.9487 14.4463C10.8602 14.3578 10.8105 14.2378 10.8105 14.1127C10.8105 13.9876 10.8602 13.8676 10.9487 13.7791C11.0372 13.6906 11.1572 13.6409 11.2823 13.6409C11.4075 13.6409 11.5275 13.6906 11.616 13.7791C11.7044 13.8676 11.7542 13.9876 11.7542 14.1127ZM21.1906 14.1127C21.1906 14.2378 21.1409 14.3578 21.0526 14.4463C20.964 14.5348 20.8441 14.5845 20.7189 14.5845C20.5937 14.5845 20.4737 14.5348 20.3852 14.4463C20.2968 14.3578 20.247 14.2378 20.247 14.1127C20.247 13.9876 20.2968 13.8676 20.3852 13.7791C20.4737 13.6906 20.5937 13.6409 20.7189 13.6409C20.8441 13.6409 20.964 13.6906 21.0526 13.7791C21.1409 13.8676 21.1906 13.9876 21.1906 14.1127Z" stroke="#0E0F0C" stroke-width="1.5" stroke-linecap="round" stroke-linejoin="round"/>
</svg>
