<svg width="117" height="22" viewBox="0 0 117 22" fill="none" xmlns="http://www.w3.org/2000/svg">
<path d="M5.53714 16.8188V4.02633H0.927734V0.969727H13.6595V4.02633H9.07251V16.8188H5.53714Z" fill="white"/>
<path d="M15.248 16.8188V0.788574H18.5373V6.94707C19.2831 5.7999 20.4243 5.22631 21.9608 5.22631C23.2437 5.22631 24.2655 5.60367 25.0263 6.35839C25.787 7.1131 26.1674 8.12442 26.1674 9.39235V16.8188H22.9006V10.2527C22.9006 9.61876 22.7216 9.1131 22.3635 8.73575C22.0055 8.35839 21.5207 8.16971 20.9091 8.16971C19.3279 8.16971 18.5373 9.39235 18.5373 11.8376V16.8188H15.248Z" fill="white"/>
<path d="M39.5484 10.8188C39.5484 11.3169 39.5335 11.732 39.5037 12.0641H31.4037C31.7318 13.5131 32.612 14.2376 34.044 14.2376C35.2523 14.2376 35.9832 13.7471 36.2368 12.7659L39.3247 13.6037C38.9965 14.6754 38.3551 15.5093 37.4004 16.1056C36.4457 16.7018 35.297 16.9999 33.9545 16.9999C32.1346 16.9999 30.7137 16.4075 29.6919 15.2225C28.6701 14.0376 28.1592 12.6678 28.1592 11.1131C28.1592 10.1169 28.3456 9.18858 28.7186 8.32821C29.0915 7.46783 29.7143 6.73575 30.587 6.13198C31.4596 5.52821 32.515 5.22632 33.7531 5.22632C34.7227 5.22632 35.5917 5.39613 36.3599 5.73575C37.1281 6.07538 37.736 6.52443 38.1835 7.08292C38.631 7.64141 38.9704 8.23764 39.2016 8.8716C39.4328 9.50556 39.5484 10.1546 39.5484 10.8188ZM31.4484 9.70934H36.0354C35.9758 9.10556 35.7558 8.61877 35.3754 8.24896C34.995 7.87915 34.4542 7.69424 33.7531 7.69424C32.5299 7.69424 31.7617 8.36594 31.4484 9.70934Z" fill="white"/>
<path d="M41.54 16.8188V5.40745H44.8293V6.94707C45.5602 5.7999 46.6193 5.22632 48.0066 5.22632C49.6923 5.22632 50.826 5.90556 51.4077 7.26406C51.7359 6.67538 52.2357 6.18858 52.9069 5.80368C53.5782 5.41877 54.3464 5.22632 55.2116 5.22632C56.4199 5.22632 57.397 5.58858 58.1429 6.31311C58.8887 7.03764 59.2616 7.95085 59.2616 9.05274V16.8188H55.9948V10.0263C55.9948 9.39236 55.8344 8.89802 55.5137 8.5433C55.193 8.18858 54.7417 8.01122 54.16 8.01122C53.4887 8.01122 52.9629 8.27538 52.5825 8.80368C52.2021 9.33198 52.0119 10.0565 52.0119 10.9773V16.8188H48.7674V10.0263C48.7674 9.40745 48.607 8.91688 48.2863 8.55462C47.9656 8.19236 47.5218 8.01122 46.955 8.01122C46.2837 8.01122 45.7616 8.27915 45.3887 8.815C45.0157 9.35085 44.8293 10.0716 44.8293 10.9773V16.8188H41.54Z" fill="white"/>
<path d="M72.6422 10.8188C72.6422 11.3169 72.6273 11.732 72.5974 12.0641H64.4974C64.8256 13.5131 65.7057 14.2376 67.1378 14.2376C68.346 14.2376 69.077 13.7471 69.3306 12.7659L72.4184 13.6037C72.0903 14.6754 71.4488 15.5093 70.4941 16.1056C69.5394 16.7018 68.3908 16.9999 67.0483 16.9999C65.2284 16.9999 63.8075 16.4075 62.7857 15.2225C61.7638 14.0376 61.2529 12.6678 61.2529 11.1131C61.2529 10.1169 61.4394 9.18858 61.8123 8.32821C62.1853 7.46783 62.808 6.73575 63.6807 6.13198C64.5534 5.52821 65.6087 5.22632 66.8469 5.22632C67.8165 5.22632 68.6854 5.39613 69.4536 5.73575C70.2219 6.07538 70.8298 6.52443 71.2773 7.08292C71.7248 7.64141 72.0641 8.23764 72.2954 8.8716C72.5266 9.50556 72.6422 10.1546 72.6422 10.8188ZM64.5422 9.70934H69.1292C69.0695 9.10556 68.8495 8.61877 68.4691 8.24896C68.0887 7.87915 67.548 7.69424 66.8469 7.69424C65.6237 7.69424 64.8554 8.36594 64.5422 9.70934Z" fill="white"/>
<path d="M73.5146 21.1207L73.0447 21.098L73 19.3773C73.1044 19.3924 73.2088 19.3999 73.3133 19.3999C74.4022 19.3999 74.9467 18.6905 74.9467 17.2716V5.40744H76.8486V17.5207C76.8486 18.5773 76.5428 19.4414 75.9312 20.1131C75.3196 20.7848 74.5141 21.1207 73.5146 21.1207ZM74.8124 0.788574H77.0053V3.23386H74.8124V0.788574Z" fill="white"/>
<path d="M89.1222 15.3358C88.0407 16.4452 86.6645 16.9999 84.9938 16.9999C83.3231 16.9999 81.9507 16.4452 80.8767 15.3358C79.8026 14.2263 79.2656 12.8188 79.2656 11.1131C79.2656 9.40745 79.8026 7.9999 80.8767 6.89047C81.9507 5.78104 83.3231 5.22632 84.9938 5.22632C86.6645 5.22632 88.0407 5.78104 89.1222 6.89047C90.2036 7.9999 90.7444 9.40745 90.7444 11.1131C90.7444 12.8188 90.2036 14.2263 89.1222 15.3358ZM82.264 14.1131C82.9651 14.8905 83.875 15.2791 84.9938 15.2791C86.1126 15.2791 87.0226 14.8905 87.7237 14.1131C88.4248 13.3358 88.7753 12.3358 88.7753 11.1131C88.7753 9.89047 88.4248 8.89047 87.7237 8.11311C87.0226 7.33575 86.1126 6.94707 84.9938 6.94707C83.875 6.94707 82.9651 7.33575 82.264 8.11311C81.5629 8.89047 81.2123 9.89047 81.2123 11.1131C81.2123 12.3358 81.5629 13.3358 82.264 14.1131Z" fill="white"/>
<path d="M93.0469 0.788574H95.2397V3.23386H93.0469V0.788574ZM93.1811 16.8188V5.40744H95.0831V16.8188H93.1811Z" fill="white"/>
<path d="M98.1709 16.8188V5.40745H100.073V7.55839C100.476 6.84896 101.013 6.28292 101.684 5.86028C102.355 5.43764 103.108 5.22632 103.944 5.22632C105.122 5.22632 106.088 5.59613 106.842 6.33575C107.595 7.07538 107.971 8.04896 107.971 9.25651V16.8188H106.07V9.61877C106.07 8.83387 105.838 8.19613 105.376 7.70556C104.913 7.215 104.294 6.96972 103.519 6.96972C102.46 6.96972 101.62 7.40368 101.001 8.2716C100.382 9.13953 100.073 10.3207 100.073 11.815V16.8188H98.1709Z" fill="white"/>
<path d="M116.631 16.7282C116.139 16.9093 115.549 16.9999 114.863 16.9999C113.849 16.9999 113.039 16.7018 112.435 16.1056C111.831 15.5093 111.529 14.6074 111.529 13.3999V7.10556H109.426V5.40745H111.529V1.9433H113.431V5.40745H116.452V7.10556H113.431V13.4678C113.431 14.0565 113.58 14.5018 113.879 14.8037C114.177 15.1056 114.58 15.2565 115.087 15.2565C115.639 15.2565 116.109 15.1584 116.497 14.9622L116.631 16.7282Z" fill="white"/>
</svg>
