<svg width="39" height="34" viewBox="0 0 39 34" fill="none" xmlns="http://www.w3.org/2000/svg">
<path d="M24.4389 16.0372L23.7695 17.2126L22.9416 18.6655L21.9925 20.3334L19.5368 24.6466H19.5349V25.2032L19.5293 33.9617L26.8238 34.0013L26.8406 11.8164L24.4389 16.0372Z" fill="#D9E009"/>
<path d="M34.9186 7.06836L27.9859 11.1419L26.9585 11.7457L26.8429 11.8136L26.841 11.8155L26.8242 34.0004L26.8317 24.6872L26.8354 20.9589V20.3589V20.3552L26.841 20.3514L28.0344 19.6514H28.0362L30.5405 18.1797L35.3494 15.3533L38.5006 13.5023L34.9186 7.06836Z" fill="#C1C108"/>
<path d="M16.5077 20.3325L15.5586 18.6646L14.7307 17.2118L14.0613 16.0363L11.6596 11.8155L11.6578 11.8136L11.5422 11.7457L10.5129 11.1419L3.58199 7.06836L0 13.4985L18.9597 24.6401L16.5077 20.3325Z" fill="#D9E009"/>
<path d="M18.9653 25.2018V24.6452H18.9634L18.9597 24.6396L0 13.498V13.5018L3.15125 15.3528L7.96017 18.1792L10.4644 19.6509L11.6596 20.3509L11.6652 20.3547V20.3584V20.9584L11.6671 24.6867L11.6745 33.9999L16.8862 33.9716L18.9709 33.9603L18.9672 28.1207L18.9653 25.2018Z" fill="#C1C108"/>
<path d="M16.8361 11.1448L18.1768 11.1467H19.8344L21.7364 11.1486L26.6553 11.1543H26.6572L27.1327 10.8769L34.6397 6.51841L31.0372 0.0976562L12.0234 11.1411L16.8361 11.1448Z" fill="#D9E009"/>
<path d="M3.93164 6.42264L10.8756 10.4717L11.9067 11.0736L12.0223 11.1396V11.1415H12.0242L31.038 0.0981132L23.0555 4.73396L19.8594 6.58868L19.3467 6.88868H19.3429L19.3373 6.88679L18.1421 6.18868L15.6323 4.72453L10.8141 1.91509L7.50057 0L3.93164 6.42264Z" fill="#C1C108"/>
</svg>
