<svg width="117" height="22" viewBox="0 0 117 22" fill="none" xmlns="http://www.w3.org/2000/svg">
<path d="M5.16995 16.8198V4.02731H0.560547V0.970703H13.2924V4.02731H8.70532V16.8198H5.16995Z" fill="#0E0F0C"/>
<path d="M14.8809 16.8193V0.789062H18.1701V6.94755C18.916 5.80038 20.0571 5.2268 21.5936 5.2268C22.8765 5.2268 23.8983 5.60416 24.6591 6.35887C25.4198 7.11359 25.8002 8.12491 25.8002 9.39284V16.8193H22.5334V10.2532C22.5334 9.61925 22.3544 9.11359 21.9964 8.73623C21.6383 8.35888 21.1535 8.1702 20.5419 8.1702C18.9607 8.1702 18.1701 9.39284 18.1701 11.8381V16.8193H14.8809Z" fill="#0E0F0C"/>
<path d="M39.1803 10.819C39.1803 11.3171 39.1654 11.7322 39.1355 12.0643H31.0355C31.3637 13.5134 32.2438 14.2379 33.6758 14.2379C34.8841 14.2379 35.6151 13.7473 35.8687 12.7662L38.9565 13.6039C38.6283 14.6756 37.9869 15.5096 37.0322 16.1058C36.0775 16.702 34.9289 17.0002 33.5863 17.0002C31.7664 17.0002 30.3456 16.4077 29.3238 15.2228C28.3019 14.0379 27.791 12.6681 27.791 11.1134C27.791 10.1171 27.9775 9.18883 28.3504 8.32845C28.7233 7.46807 29.3461 6.736 30.2188 6.13222C31.0914 5.52845 32.1468 5.22656 33.385 5.22656C34.3546 5.22656 35.2235 5.39637 35.9917 5.736C36.76 6.07562 37.3678 6.52468 37.8154 7.08317C38.2629 7.64166 38.6022 8.23788 38.8335 8.87185C39.0647 9.50581 39.1803 10.1549 39.1803 10.819ZM31.0803 9.70958H35.6673C35.6076 9.10581 35.3876 8.61902 35.0072 8.24921C34.6268 7.87939 34.0861 7.69449 33.385 7.69449C32.1617 7.69449 31.3935 8.36619 31.0803 9.70958Z" fill="#0E0F0C"/>
<path d="M41.1719 16.819V5.4077H44.4611V6.94732C45.192 5.80015 46.2512 5.22656 47.6385 5.22656C49.3241 5.22656 50.4578 5.90581 51.0396 7.2643C51.3678 6.67562 51.8675 6.18883 52.5388 5.80392C53.21 5.41902 53.9783 5.22656 54.8435 5.22656C56.0518 5.22656 57.0288 5.58883 57.7747 6.31336C58.5205 7.03788 58.8935 7.95109 58.8935 9.05298V16.819H55.6266V10.0266C55.6266 9.3926 55.4663 8.89826 55.1455 8.54354C54.8248 8.18883 54.3736 8.01147 53.7918 8.01147C53.1205 8.01147 52.5947 8.27562 52.2143 8.80392C51.8339 9.33222 51.6437 10.0568 51.6437 10.9775V16.819H48.3992V10.0266C48.3992 9.4077 48.2389 8.91713 47.9182 8.55486C47.5974 8.1926 47.1537 8.01147 46.5868 8.01147C45.9155 8.01147 45.3934 8.27939 45.0205 8.81524C44.6476 9.35109 44.4611 10.0718 44.4611 10.9775V16.819H41.1719Z" fill="#0E0F0C"/>
<path d="M72.274 10.819C72.274 11.3171 72.2591 11.7322 72.2293 12.0643H64.1293C64.4574 13.5134 65.3375 14.2379 66.7696 14.2379C67.9779 14.2379 68.7088 13.7473 68.9624 12.7662L72.0503 13.6039C71.7221 14.6756 71.0807 15.5096 70.126 16.1058C69.1713 16.702 68.0226 17.0002 66.6801 17.0002C64.8602 17.0002 63.4393 16.4077 62.4175 15.2228C61.3957 14.0379 60.8848 12.6681 60.8848 11.1134C60.8848 10.1171 61.0712 9.18883 61.4442 8.32845C61.8171 7.46807 62.4399 6.736 63.3125 6.13222C64.1852 5.52845 65.2406 5.22656 66.4787 5.22656C67.4483 5.22656 68.3172 5.39637 69.0855 5.736C69.8537 6.07562 70.4616 6.52468 70.9091 7.08317C71.3566 7.64166 71.696 8.23788 71.9272 8.87185C72.1584 9.50581 72.274 10.1549 72.274 10.819ZM64.174 9.70958H68.761C68.7014 9.10581 68.4813 8.61902 68.1009 8.24921C67.7206 7.87939 67.1798 7.69449 66.4787 7.69449C65.2555 7.69449 64.4873 8.36619 64.174 9.70958Z" fill="#0E0F0C"/>
<path d="M73.1475 21.1211L72.6776 21.0985L72.6328 19.3777C72.7372 19.3928 72.8417 19.4004 72.9461 19.4004C74.035 19.4004 74.5795 18.691 74.5795 17.2721V5.40793H76.4814V17.5211C76.4814 18.5777 76.1756 19.4419 75.564 20.1136C74.9524 20.7853 74.1469 21.1211 73.1475 21.1211ZM74.4452 0.789062H76.6381V3.23435H74.4452V0.789062Z" fill="#0E0F0C"/>
<path d="M88.755 15.336C87.6735 16.4454 86.2974 17.0002 84.6266 17.0002C82.9559 17.0002 81.5835 16.4454 80.5095 15.336C79.4355 14.2266 78.8984 12.819 78.8984 11.1134C78.8984 9.4077 79.4355 8.00015 80.5095 6.89071C81.5835 5.78128 82.9559 5.22656 84.6266 5.22656C86.2974 5.22656 87.6735 5.78128 88.755 6.89071C89.8365 8.00015 90.3772 9.4077 90.3772 11.1134C90.3772 12.819 89.8365 14.2266 88.755 15.336ZM81.8968 14.1134C82.5979 14.8907 83.5078 15.2794 84.6266 15.2794C85.7454 15.2794 86.6554 14.8907 87.3565 14.1134C88.0576 13.336 88.4081 12.336 88.4081 11.1134C88.4081 9.89071 88.0576 8.89071 87.3565 8.11336C86.6554 7.336 85.7454 6.94732 84.6266 6.94732C83.5078 6.94732 82.5979 7.336 81.8968 8.11336C81.1957 8.89071 80.8451 9.89071 80.8451 11.1134C80.8451 12.336 81.1957 13.336 81.8968 14.1134Z" fill="#0E0F0C"/>
<path d="M92.6797 0.789062H94.8725V3.23435H92.6797V0.789062ZM92.8139 16.8193V5.40793H94.7159V16.8193H92.8139Z" fill="#0E0F0C"/>
<path d="M97.8047 16.819V5.4077H99.7066V7.55864C100.109 6.8492 100.646 6.28317 101.318 5.86052C101.989 5.43788 102.742 5.22656 103.578 5.22656C104.756 5.22656 105.722 5.59637 106.475 6.336C107.229 7.07562 107.605 8.0492 107.605 9.25675V16.819H105.703V9.61902C105.703 8.83411 105.472 8.19637 105.01 7.70581C104.547 7.21524 103.928 6.96996 103.152 6.96996C102.093 6.96996 101.254 7.40392 100.635 8.27185C100.016 9.13977 99.7066 10.3209 99.7066 11.8152V16.819H97.8047Z" fill="#0E0F0C"/>
<path d="M116.264 16.7283C115.771 16.9094 115.182 17 114.496 17C113.482 17 112.672 16.7019 112.068 16.1056C111.464 15.5094 111.162 14.6075 111.162 13.4V7.10562H109.059V5.40751H111.162V1.94336H113.064V5.40751H116.085V7.10562H113.064V13.4679C113.064 14.0566 113.213 14.5019 113.511 14.8037C113.81 15.1056 114.212 15.2566 114.72 15.2566C115.272 15.2566 115.741 15.1585 116.129 14.9622L116.264 16.7283Z" fill="#0E0F0C"/>
</svg>
