<svg width="18" height="22" viewBox="0 0 18 22" fill="none" xmlns="http://www.w3.org/2000/svg">
<path d="M11.74 7.59964L11.394 16.5996M6.606 16.5996L6.26 7.59964M16.228 4.38964C16.57 4.44164 16.91 4.49664 17.25 4.55564M16.228 4.38964L15.16 18.2726C15.1164 18.8379 14.8611 19.3658 14.445 19.7509C14.029 20.136 13.4829 20.3498 12.916 20.3496H5.084C4.5171 20.3498 3.97102 20.136 3.55498 19.7509C3.13894 19.3658 2.88359 18.8379 2.84 18.2726L1.772 4.38964M16.228 4.38964C15.0739 4.21516 13.9138 4.08274 12.75 3.99264M1.772 4.38964C1.43 4.44064 1.09 4.49564 0.75 4.55464M1.772 4.38964C2.92613 4.21516 4.08623 4.08274 5.25 3.99264M12.75 3.99264V3.07664C12.75 1.89664 11.84 0.912642 10.66 0.875642C9.55362 0.840281 8.44638 0.840281 7.34 0.875642C6.16 0.912642 5.25 1.89764 5.25 3.07664V3.99264M12.75 3.99264C10.2537 3.79972 7.74628 3.79972 5.25 3.99264" stroke="#0E0F0C" stroke-opacity="0.6" stroke-width="1.5" stroke-linecap="round" stroke-linejoin="round"/>
</svg>
