<svg width="34" height="34" viewBox="0 0 34 34" fill="none" xmlns="http://www.w3.org/2000/svg">
<path d="M28.05 31.875H21.1437C20.862 31.875 20.5917 31.7631 20.3925 31.5638C20.1932 31.3645 20.0812 31.0943 20.0812 30.8125C20.0812 30.5307 20.1932 30.2605 20.3925 30.0612C20.5917 29.8619 20.862 29.75 21.1437 29.75H28.05C28.5009 29.75 28.9333 29.5709 29.2521 29.2521C29.5709 28.9333 29.75 28.5009 29.75 28.05V21.1437C29.75 20.862 29.8619 20.5917 30.0612 20.3925C30.2605 20.1932 30.5307 20.0812 30.8125 20.0812C31.0943 20.0812 31.3645 20.1932 31.5638 20.3925C31.7631 20.5917 31.875 20.862 31.875 21.1437V28.05C31.8722 29.0636 31.4683 30.0349 30.7516 30.7516C30.0349 31.4683 29.0636 31.8722 28.05 31.875ZM13.9188 30.8125C13.9188 30.5307 13.8068 30.2605 13.6076 30.0612C13.4083 29.8619 13.138 29.75 12.8563 29.75H5.95C5.49913 29.75 5.06673 29.5709 4.74792 29.2521C4.42911 28.9333 4.25 28.5009 4.25 28.05V21.1437C4.25 20.862 4.13806 20.5917 3.9388 20.3925C3.73954 20.1932 3.46929 20.0812 3.1875 20.0812C2.90571 20.0812 2.63546 20.1932 2.4362 20.3925C2.23694 20.5917 2.125 20.862 2.125 21.1437V28.05C2.1278 29.0636 2.53169 30.0349 3.24841 30.7516C3.96513 31.4683 4.93641 31.8722 5.95 31.875H12.8563C13.138 31.875 13.4083 31.7631 13.6076 31.5638C13.8068 31.3645 13.9188 31.0943 13.9188 30.8125ZM4.25 12.8563V5.95C4.25 5.49913 4.42911 5.06673 4.74792 4.74792C5.06673 4.42911 5.49913 4.25 5.95 4.25H12.8563C13.138 4.25 13.4083 4.13806 13.6076 3.9388C13.8068 3.73954 13.9188 3.46929 13.9188 3.1875C13.9188 2.90571 13.8068 2.63546 13.6076 2.4362C13.4083 2.23694 13.138 2.125 12.8563 2.125H5.95C4.93641 2.1278 3.96513 2.53169 3.24841 3.24841C2.53169 3.96513 2.1278 4.93641 2.125 5.95V12.8563C2.125 13.138 2.23694 13.4083 2.4362 13.6076C2.63546 13.8068 2.90571 13.9188 3.1875 13.9188C3.46929 13.9188 3.73954 13.8068 3.9388 13.6076C4.13806 13.4083 4.25 13.138 4.25 12.8563ZM31.875 12.8563V5.95C31.8722 4.93641 31.4683 3.96513 30.7516 3.24841C30.0349 2.53169 29.0636 2.1278 28.05 2.125H21.1437C20.862 2.125 20.5917 2.23694 20.3925 2.4362C20.1932 2.63546 20.0812 2.90571 20.0812 3.1875C20.0812 3.46929 20.1932 3.73954 20.3925 3.9388C20.5917 4.13806 20.862 4.25 21.1437 4.25H28.05C28.5009 4.25 28.9333 4.42911 29.2521 4.74792C29.5709 5.06673 29.75 5.49913 29.75 5.95V12.8563C29.75 13.138 29.8619 13.4083 30.0612 13.6076C30.2605 13.8068 30.5307 13.9188 30.8125 13.9188C31.0943 13.9188 31.3645 13.8068 31.5638 13.6076C31.7631 13.4083 31.875 13.138 31.875 12.8563Z" fill="white"/>
</svg>
