<svg
                        width="9"
                        height="10"
                        viewBox="0 0 9 10"
                        fill="none"
                        xmlns="http://www.w3.org/2000/svg"
                        className="cursor-pointer"
                      >
                        <path
                          d="M4.67546 9.10393C2.37427 9.10393 0.508789 7.23843 0.508789 4.93727C0.508789 2.63608 2.37427 0.770599 4.67546 0.770599C6.97662 0.770599 8.84212 2.63608 8.84212 4.93727C8.84212 7.23843 6.97662 9.10393 4.67546 9.10393ZM4.67546 8.2706C6.51641 8.2706 8.00879 6.77822 8.00879 4.93727C8.00879 3.09632 6.51641 1.60393 4.67546 1.60393C2.83451 1.60393 1.34212 3.09632 1.34212 4.93727C1.34212 6.77822 2.83451 8.2706 4.67546 8.2706ZM4.25879 2.85393H5.09212V3.68727H4.25879V2.85393ZM4.25879 4.5206H5.09212V7.0206H4.25879V4.5206Z"
                          fill="#0E0F0C"
                          fillOpacity="0.4"
                        />
                      </svg>