<svg width="34" height="20" viewBox="0 0 34 20" fill="none" xmlns="http://www.w3.org/2000/svg">
<rect y="0.5" width="34" height="19" rx="4" fill="#0E0F0C"/>
<path d="M12.0028 5.77273V14.5H10.7926L6.35653 8.09943H6.27557V14.5H4.95881V5.77273H6.17756L10.6179 12.1818H10.6989V5.77273H12.0028ZM16.6424 14.6321C15.9975 14.6321 15.4421 14.4943 14.9762 14.2188C14.5131 13.9403 14.1552 13.5497 13.9023 13.0469C13.6523 12.5412 13.5273 11.9489 13.5273 11.2699C13.5273 10.5994 13.6523 10.0085 13.9023 9.49716C14.1552 8.9858 14.5075 8.58665 14.9592 8.29972C15.4137 8.01278 15.945 7.86932 16.5529 7.86932C16.9222 7.86932 17.2802 7.9304 17.6268 8.05256C17.9734 8.17472 18.2844 8.36648 18.56 8.62784C18.8356 8.8892 19.0529 9.22869 19.212 9.64631C19.3711 10.0611 19.4506 10.5653 19.4506 11.1591V11.6108H14.2475V10.6562H18.2021C18.2021 10.321 18.1339 10.0241 17.9975 9.76562C17.8612 9.50426 17.6694 9.2983 17.4222 9.14773C17.1779 8.99716 16.891 8.92188 16.5614 8.92188C16.2035 8.92188 15.891 9.00994 15.6239 9.18608C15.3597 9.35937 15.1552 9.58665 15.0103 9.8679C14.8683 10.1463 14.7972 10.4489 14.7972 10.7756V11.5213C14.7972 11.9588 14.8739 12.331 15.0273 12.6378C15.1836 12.9446 15.4009 13.179 15.6793 13.3409C15.9577 13.5 16.283 13.5795 16.6552 13.5795C16.8967 13.5795 17.1168 13.5455 17.3157 13.4773C17.5146 13.4062 17.6864 13.3011 17.8313 13.1619C17.9762 13.0227 18.087 12.8509 18.1637 12.6463L19.3697 12.8636C19.2731 13.2187 19.0998 13.5298 18.8498 13.7969C18.6026 14.0611 18.2915 14.267 17.9165 14.4148C17.5444 14.5597 17.1197 14.6321 16.6424 14.6321ZM22.2717 14.5L20.3455 7.95455H21.6623L22.945 12.7614H23.0089L24.2958 7.95455H25.6126L26.891 12.7401H26.9549L28.229 7.95455H29.5458L27.6239 14.5H26.3242L24.9947 9.77415H24.8967L23.5671 14.5H22.2717Z" fill="white"/>
</svg>
