<svg width="509" height="465" viewBox="0 0 509 465" fill="none" xmlns="http://www.w3.org/2000/svg">
<path d="M473.942 29.2185C465.886 29.2185 459.332 22.6647 459.332 14.6089C459.332 6.55346 465.886 0 473.942 0C481.997 0 488.55 6.55358 488.55 14.6089C488.551 22.6647 481.997 29.2185 473.942 29.2185ZM473.942 2.51901C467.275 2.51901 461.851 7.94244 461.851 14.6089C461.851 21.2757 467.275 26.6995 473.942 26.6995C480.608 26.6995 486.031 21.2757 486.031 14.6089C486.032 7.94244 480.608 2.51901 473.942 2.51901Z" fill="#0E0F0C" fill-opacity="0.4"/>
<path d="M47.8137 67.4206C48.6655 71.0827 46.3874 74.7414 42.7259 75.593C39.0638 76.4448 35.4053 74.1669 34.5535 70.5049C33.7018 66.8431 35.9795 63.1845 39.6417 62.3328C43.3032 61.481 46.962 63.7589 47.8137 67.4206Z" fill="#0E0F0C" fill-opacity="0.4"/>
<path d="M14.4692 131.272C11.6457 131.469 8.83976 130.777 6.39052 129.253C3.31783 127.339 1.17403 124.344 0.353843 120.818C-1.33881 113.54 3.20511 106.242 10.4832 104.549C17.7612 102.856 25.059 107.4 26.7518 114.678C28.4447 121.956 23.9009 129.255 16.6231 130.947C15.9077 131.114 15.1879 131.222 14.4692 131.272ZM12.7899 106.741C12.2138 106.782 11.6338 106.868 11.0538 107.003C5.12863 108.381 1.42921 114.322 2.80736 120.247C3.47502 123.118 5.22032 125.557 7.72182 127.114C10.2233 128.672 13.182 129.162 16.0524 128.494C21.9774 127.116 25.6764 121.174 24.2982 115.249C23.055 109.904 18.0981 106.37 12.7899 106.741Z" fill="#0E0F0C" fill-opacity="0.4"/>
<path d="M75.2791 460.007C71.0393 460.007 67.5898 456.558 67.5898 452.318C67.5898 448.078 71.0393 444.629 75.2791 444.629C79.5189 444.629 82.9681 448.078 82.9681 452.318C82.9681 456.558 79.5189 460.007 75.2791 460.007ZM75.2791 446.644C72.1505 446.644 69.6051 449.189 69.6051 452.318C69.6051 455.447 72.1504 457.992 75.2791 457.992C78.4076 457.992 80.9529 455.447 80.9529 452.318C80.9529 449.189 78.4076 446.644 75.2791 446.644Z" fill="#0E0F0C" fill-opacity="0.4"/>
<path d="M106.736 109.995C71.8612 136.266 42.6494 168.095 31.8678 206.713C18.2781 255.388 34.2778 308.262 65.7526 347.727C123.923 420.663 235.937 448.403 325.479 412.047C415.851 375.354 467.863 277.42 479.588 188.117C484.422 151.291 479.155 112.348 458.21 81.6305C432.852 44.4437 386.658 23.3356 340.117 20.3988C293.577 17.4617 246.871 31.0295 205.081 51.8109C173.889 67.3215 138.032 86.4202 106.736 109.995Z" fill="#0E0F0C" fill-opacity="0.08"/>
<path d="M344.435 464.356C344.035 464.386 343.679 464.096 343.631 463.693C343.581 463.279 343.876 462.902 344.29 462.852C345.519 462.704 346.688 462.36 347.767 461.829C348.141 461.644 348.594 461.798 348.779 462.172C348.963 462.547 348.809 463 348.435 463.184C347.203 463.791 345.869 464.184 344.471 464.353C344.459 464.354 344.447 464.356 344.435 464.356ZM351.275 460.96C351.07 460.975 350.861 460.907 350.7 460.755C350.397 460.468 350.384 459.99 350.671 459.687C350.955 459.386 351.226 459.064 351.474 458.73C351.477 458.726 351.48 458.722 351.483 458.718C352.037 458.003 352.621 457.331 353.218 456.723C353.511 456.426 353.989 456.421 354.287 456.714C354.585 457.006 354.589 457.485 354.296 457.783C353.742 458.347 353.199 458.971 352.683 459.637C352.4 460.018 352.092 460.384 351.768 460.726C351.633 460.868 351.456 460.947 351.275 460.96ZM356.815 455.536C356.549 455.556 356.281 455.433 356.126 455.194C355.898 454.844 355.998 454.376 356.348 454.149C357.315 453.52 358.339 452.997 359.391 452.593C359.598 452.513 359.808 452.438 360.015 452.368C360.411 452.237 360.839 452.45 360.971 452.846C361.103 453.242 360.89 453.67 360.494 453.802C360.308 453.864 360.119 453.932 359.933 454.004C358.979 454.37 358.05 454.845 357.171 455.416C357.06 455.488 356.938 455.527 356.815 455.536ZM368.02 453.266C367.99 453.268 367.96 453.269 367.929 453.267C367.623 453.253 367.312 453.233 366.982 453.211C366.123 453.155 365.148 453.09 364.108 453.138C363.691 453.157 363.337 452.835 363.318 452.418C363.299 452.001 363.618 451.648 364.038 451.628C365.163 451.577 366.182 451.644 367.081 451.703C367.404 451.724 367.708 451.744 367.999 451.757C368.416 451.777 368.738 452.131 368.719 452.547C368.701 452.933 368.397 453.239 368.02 453.266ZM371.876 452.9C371.515 452.927 371.177 452.69 371.088 452.326C370.988 451.921 371.236 451.512 371.642 451.413C372.816 451.124 373.924 450.672 375.027 450.03C375.388 449.82 375.851 449.942 376.061 450.303C376.271 450.664 376.148 451.126 375.788 451.336C374.557 452.052 373.319 452.557 372.002 452.88C371.96 452.891 371.917 452.897 371.876 452.9ZM378.579 449.117C378.355 449.133 378.126 449.05 377.964 448.871C377.683 448.562 377.707 448.084 378.016 447.803C378.846 447.052 379.713 446.158 380.667 445.07C380.942 444.756 381.419 444.725 381.734 445C382.047 445.275 382.079 445.753 381.803 446.067C380.81 447.199 379.904 448.133 379.031 448.923C378.901 449.041 378.742 449.105 378.579 449.117ZM383.786 443.331C383.601 443.345 383.41 443.29 383.255 443.164C382.93 442.901 382.881 442.425 383.144 442.101L383.333 441.868C384.08 440.948 384.853 439.996 385.64 439.079C385.911 438.762 386.388 438.725 386.705 438.997C387.022 439.269 387.058 439.746 386.787 440.063C386.013 440.965 385.247 441.908 384.506 442.821L384.317 443.054C384.181 443.222 383.986 443.316 383.786 443.331ZM434.854 436.092C433.748 436.173 432.599 436.171 431.439 436.086C431.023 436.056 430.71 435.694 430.74 435.278C430.771 434.861 431.133 434.548 431.549 434.579C432.834 434.673 434.097 434.659 435.308 434.535C435.315 434.534 435.323 434.534 435.33 434.533C435.736 434.503 436.095 434.802 436.136 435.21C436.179 435.626 435.876 435.996 435.461 436.039C435.262 436.059 435.058 436.077 434.854 436.092ZM420.556 437.04C419.552 437.114 418.588 437.111 417.61 437.032C417.194 436.999 416.884 436.635 416.918 436.218C416.951 435.802 417.317 435.492 417.732 435.526C418.632 435.598 419.519 435.601 420.445 435.533C420.776 435.509 421.11 435.476 421.468 435.433C421.48 435.432 421.492 435.43 421.503 435.43C421.904 435.4 422.26 435.691 422.308 436.093C422.358 436.508 422.063 436.884 421.648 436.934C421.267 436.98 420.91 437.015 420.556 437.04ZM439.247 435.253C438.908 435.278 438.584 435.07 438.474 434.733C438.345 434.336 438.562 433.91 438.958 433.78C439.747 433.523 440.503 433.207 441.202 432.84C441.536 432.666 441.911 432.451 442.317 432.203C442.672 431.985 443.138 432.098 443.356 432.454C443.573 432.81 443.461 433.275 443.105 433.493C442.67 433.758 442.267 433.989 441.904 434.179C441.129 434.585 440.296 434.934 439.426 435.217C439.367 435.237 439.307 435.248 439.247 435.253ZM425.44 436.212C425.087 436.238 424.753 436.01 424.657 435.655C424.565 435.318 424.717 434.972 425.006 434.805C424.549 434.656 424.096 434.495 423.649 434.324C423.259 434.174 423.064 433.738 423.214 433.348C423.363 432.958 423.8 432.763 424.19 432.913C425.283 433.331 426.408 433.68 427.539 433.951C427.942 433.792 428.338 433.622 428.725 433.441C429.103 433.265 429.553 433.428 429.729 433.807C429.906 434.185 429.742 434.634 429.364 434.811C428.951 435.004 428.529 435.185 428.099 435.355C427.987 435.439 427.852 435.492 427.709 435.504C427.017 435.763 426.306 435.992 425.583 436.187C425.536 436.2 425.488 436.208 425.44 436.212ZM413.892 436.381C413.811 436.387 413.728 436.38 413.645 436.358C412.44 436.043 411.275 435.629 409.87 435.016C409.487 434.849 409.313 434.404 409.48 434.021C409.647 433.638 410.092 433.464 410.474 433.631C411.805 434.211 412.901 434.602 414.028 434.896C414.431 435.002 414.673 435.415 414.568 435.818C414.484 436.14 414.205 436.358 413.892 436.381ZM388.924 437.471C388.708 437.487 388.487 437.411 388.325 437.243C388.035 436.943 388.043 436.465 388.343 436.175C389.388 435.163 390.399 434.325 391.433 433.613C391.777 433.376 392.248 433.463 392.484 433.807C392.721 434.15 392.634 434.621 392.29 434.858C391.325 435.522 390.378 436.308 389.394 437.26C389.261 437.389 389.094 437.459 388.924 437.471ZM432.454 432.908C432.203 432.927 431.947 432.819 431.788 432.6C431.542 432.263 431.616 431.79 431.953 431.544C432.968 430.804 433.898 429.963 434.718 429.044C434.995 428.732 435.473 428.705 435.785 428.983C436.096 429.26 436.124 429.738 435.846 430.05C434.955 431.048 433.945 431.962 432.844 432.765C432.725 432.851 432.59 432.898 432.454 432.908ZM445.997 431.423C445.744 431.442 445.488 431.333 445.329 431.112C445.085 430.774 445.161 430.301 445.499 430.057C446.531 429.312 447.55 428.518 448.527 427.696C448.847 427.427 449.323 427.468 449.592 427.788C449.861 428.108 449.819 428.584 449.5 428.853C448.494 429.699 447.446 430.516 446.384 431.282C446.266 431.367 446.132 431.414 445.997 431.423ZM420.448 432.723C420.305 432.734 420.158 432.704 420.024 432.629C419.323 432.236 418.639 431.811 417.992 431.366C417.6 431.096 417.155 430.791 416.688 430.448C416.351 430.202 416.278 429.729 416.525 429.392C416.771 429.056 417.244 428.982 417.581 429.229C418.03 429.558 418.465 429.857 418.849 430.121C419.458 430.54 420.102 430.94 420.762 431.31C421.127 431.514 421.257 431.974 421.053 432.338C420.924 432.568 420.692 432.705 420.448 432.723ZM406.681 433.469C406.564 433.477 406.444 433.459 406.329 433.41C404.973 432.831 403.881 432.486 402.79 432.294C402.379 432.221 402.105 431.829 402.177 431.418C402.25 431.007 402.642 430.733 403.053 430.805C404.262 431.019 405.456 431.393 406.923 432.02C407.307 432.184 407.485 432.628 407.321 433.012C407.206 433.281 406.954 433.449 406.681 433.469ZM395.337 433.159C395.015 433.182 394.702 432.996 394.578 432.679C394.427 432.29 394.619 431.852 395.008 431.701C396.057 431.292 397.159 430.991 398.281 430.808C398.506 430.771 398.733 430.739 398.954 430.712C399.369 430.659 399.745 430.956 399.795 431.371C399.846 431.785 399.551 432.162 399.137 432.212C398.936 432.237 398.73 432.266 398.524 432.3C397.506 432.466 396.508 432.738 395.557 433.109C395.485 433.137 395.411 433.153 395.337 433.159ZM451.957 426.414C451.742 426.429 451.522 426.354 451.36 426.188C451.069 425.889 451.075 425.41 451.374 425.119C452.294 424.223 453.16 423.313 454.023 422.338C454.3 422.026 454.778 421.997 455.09 422.274C455.402 422.55 455.431 423.028 455.155 423.34C454.267 424.343 453.375 425.279 452.429 426.201C452.296 426.331 452.128 426.401 451.957 426.414ZM437.621 427.151C437.472 427.162 437.317 427.129 437.179 427.046C436.821 426.832 436.704 426.368 436.918 426.009C437.578 424.907 438.109 423.769 438.495 422.629C438.629 422.233 439.058 422.022 439.454 422.156C439.849 422.29 440.06 422.719 439.927 423.114C439.506 424.355 438.93 425.59 438.215 426.785C438.084 427.005 437.858 427.134 437.621 427.151ZM414.262 428.031C414.041 428.047 413.815 427.966 413.652 427.791C412.708 426.772 411.909 425.656 411.279 424.474C411.083 424.106 411.222 423.648 411.591 423.452C411.959 423.255 412.417 423.395 412.613 423.763C413.182 424.83 413.905 425.84 414.761 426.763C415.045 427.07 415.026 427.548 414.72 427.831C414.59 427.953 414.427 428.019 414.262 428.031ZM457.291 420.734C457.073 420.75 456.85 420.671 456.688 420.501C456.4 420.198 456.413 419.719 456.715 419.432C457.579 418.612 458.593 417.744 459.728 416.85C460.056 416.592 460.531 416.649 460.79 416.977C461.048 417.305 460.991 417.78 460.663 418.038C459.564 418.903 458.586 419.741 457.756 420.528C457.624 420.653 457.459 420.722 457.291 420.734ZM440.055 419.82C440.018 419.823 439.98 419.823 439.942 419.82C439.525 419.789 439.214 419.426 439.245 419.009C439.296 418.339 439.297 417.66 439.248 416.993C439.217 416.57 439.165 416.143 439.094 415.722C439.072 415.592 439.049 415.464 439.024 415.338C438.942 414.928 439.208 414.53 439.618 414.449C440.028 414.368 440.425 414.634 440.506 415.043C440.534 415.184 440.56 415.326 440.584 415.47C440.663 415.937 440.721 416.413 440.755 416.883C440.809 417.624 440.808 418.378 440.752 419.124C440.723 419.501 440.422 419.793 440.055 419.82ZM410.616 421.241C410.256 421.267 409.919 421.032 409.828 420.671C409.599 419.755 409.448 418.829 409.382 417.918C409.35 417.483 409.337 417.046 409.343 416.619C409.349 416.201 409.694 415.867 410.109 415.874C410.527 415.88 410.86 416.223 410.854 416.64C410.849 417.023 410.861 417.416 410.889 417.807C410.95 418.631 411.086 419.471 411.295 420.303C411.396 420.708 411.15 421.118 410.746 421.22C410.702 421.231 410.659 421.238 410.616 421.241ZM463.386 415.879C463.13 415.898 462.87 415.785 462.711 415.559C462.472 415.217 462.555 414.746 462.897 414.506C463.899 413.804 464.996 413.067 466.157 412.317C466.508 412.09 466.976 412.191 467.202 412.541C467.429 412.892 467.328 413.36 466.978 413.586C465.833 414.326 464.751 415.052 463.764 415.744C463.648 415.825 463.518 415.869 463.386 415.879ZM469.928 411.634C469.654 411.654 469.379 411.525 469.227 411.274C469.01 410.918 469.122 410.453 469.479 410.236C470.715 409.481 471.87 408.797 472.836 408.228C473.196 408.015 473.659 408.135 473.871 408.495C474.083 408.854 473.963 409.318 473.604 409.53C472.642 410.096 471.494 410.777 470.266 411.526C470.159 411.59 470.044 411.626 469.928 411.634ZM438.564 412.269C438.267 412.291 437.972 412.134 437.832 411.851C437.285 410.749 436.576 409.687 435.781 408.781C435.506 408.467 435.538 407.989 435.852 407.714C436.166 407.439 436.643 407.471 436.918 407.785C437.797 408.788 438.581 409.962 439.185 411.179C439.371 411.553 439.218 412.006 438.844 412.192C438.754 412.237 438.659 412.262 438.564 412.269ZM410.779 413.553C410.684 413.56 410.586 413.549 410.49 413.518C410.093 413.388 409.876 412.962 410.005 412.565C410.054 412.417 410.105 412.268 410.159 412.118C410.576 410.978 411.15 409.895 411.866 408.899C412.11 408.561 412.582 408.483 412.921 408.727C413.259 408.971 413.337 409.443 413.093 409.782C412.458 410.666 411.948 411.626 411.579 412.637C411.531 412.769 411.485 412.902 411.442 413.033C411.344 413.334 411.076 413.531 410.779 413.553ZM476.62 407.624C476.356 407.643 476.089 407.523 475.933 407.285C475.704 406.936 475.801 406.468 476.15 406.238C477.177 405.564 478.16 404.775 479.072 403.893C479.373 403.604 479.851 403.611 480.141 403.912C480.431 404.212 480.423 404.69 480.123 404.98C479.143 405.927 478.085 406.775 476.979 407.502C476.868 407.575 476.745 407.615 476.62 407.624ZM433.474 406.49C433.314 406.501 433.15 406.463 433.005 406.368C431.993 405.706 430.874 405.168 429.678 404.768C429.283 404.636 429.069 404.208 429.201 403.812C429.333 403.416 429.761 403.203 430.158 403.335C431.476 403.775 432.712 404.37 433.833 405.104C434.182 405.332 434.28 405.8 434.052 406.15C433.917 406.355 433.7 406.473 433.474 406.49ZM415.231 407.302C414.988 407.319 414.742 407.22 414.58 407.014C414.323 406.686 414.38 406.211 414.708 405.953C415.762 405.127 416.939 404.424 418.205 403.864C418.587 403.696 419.033 403.868 419.202 404.25C419.37 404.632 419.198 405.078 418.816 405.247C417.664 405.756 416.596 406.394 415.641 407.143C415.519 407.239 415.375 407.291 415.231 407.302ZM482.213 402.263C482.039 402.276 481.859 402.228 481.707 402.116C481.373 401.867 481.303 401.393 481.552 401.058C482.277 400.085 482.966 399.012 483.602 397.869C483.804 397.504 484.264 397.373 484.629 397.575C484.994 397.778 485.125 398.239 484.923 398.603C484.255 399.804 483.529 400.934 482.765 401.96C482.628 402.144 482.425 402.248 482.213 402.263ZM426.167 404.01C426.125 404.013 426.083 404.012 426.041 404.008C424.923 403.904 424.121 403.948 423.901 403.964L423.886 403.965C423.382 404.002 422.869 404.067 422.36 404.158C421.951 404.232 421.557 403.959 421.483 403.549C421.409 403.138 421.682 402.745 422.092 402.671C422.653 402.57 423.219 402.498 423.775 402.457L423.792 402.456C424.111 402.433 424.981 402.392 426.18 402.503C426.596 402.542 426.902 402.91 426.863 403.326C426.828 403.699 426.528 403.983 426.167 404.01ZM486.019 395.49C485.903 395.498 485.783 395.48 485.668 395.432C485.284 395.268 485.105 394.825 485.268 394.441C485.747 393.314 486.199 392.107 486.611 390.855C486.741 390.458 487.168 390.242 487.564 390.373C487.961 390.503 488.177 390.93 488.046 391.327C487.621 392.62 487.155 393.866 486.659 395.032C486.545 395.301 486.292 395.47 486.019 395.49ZM488.468 388.105C488.389 388.111 488.308 388.104 488.227 388.084C487.822 387.981 487.578 387.569 487.681 387.165C487.986 385.966 488.27 384.701 488.524 383.407C488.604 382.997 489.001 382.73 489.411 382.81C489.82 382.891 490.087 383.288 490.007 383.697C489.748 385.02 489.458 386.312 489.145 387.538C489.063 387.861 488.784 388.082 488.468 388.105ZM489.979 380.467C489.924 380.471 489.868 380.469 489.812 380.461C489.399 380.4 489.114 380.016 489.175 379.603C489.231 379.226 489.285 378.844 489.338 378.457C489.393 378.044 489.774 377.753 490.188 377.81C490.601 377.866 490.891 378.246 490.835 378.66C490.782 379.053 490.727 379.441 490.67 379.824C490.617 380.181 490.324 380.442 489.979 380.467Z" fill="#0E0F0C" fill-opacity="0.2"/>
<path d="M488.906 377.375C500.004 377.375 509 368.379 509 357.281C509 346.184 500.004 337.188 488.906 337.188C477.809 337.188 468.812 346.184 468.812 357.281C468.812 368.379 477.809 377.375 488.906 377.375Z" fill="#0E0F0C" fill-opacity="0.2"/>
<path d="M496.181 367.903L496.207 367.876L496.233 367.903L499.579 364.555L499.554 364.528L496.207 361.183L492.284 357.26L499.579 349.965L496.233 346.617L488.939 353.912L481.644 346.617L478.297 349.965L485.592 357.26L481.669 361.183L478.323 364.528L478.297 364.555L481.644 367.903L481.669 367.876L481.695 367.903L485.016 364.528L488.939 360.606L492.86 364.528L496.181 367.903Z" fill="white"/>
<path d="M438.88 354H121.121C113.322 354 107 347.678 107 339.879V140.121C107 132.322 113.322 126 121.121 126H438.88C446.678 126 453.001 132.322 453.001 140.121V339.879C453.001 347.678 446.678 354 438.88 354Z" fill="#D4D4D3"/>
<path d="M438.88 126H121.121C113.322 126 107 132.322 107 140.121V154H452.999V140.121C453.001 132.322 446.678 126 438.88 126Z" fill="#C0C0BF"/>
<path d="M121.121 126.432H438.88C446.44 126.432 452.57 132.561 452.568 140.121V153.568H107.432V140.121C107.432 132.561 113.561 126.432 121.121 126.432Z" stroke="#0E0F0C" stroke-opacity="0.4" stroke-width="0.863015"/>
<path d="M395.606 145.448C398.367 145.448 400.606 143.209 400.606 140.448C400.606 137.686 398.367 135.447 395.606 135.447C392.844 135.447 390.605 137.686 390.605 140.448C390.605 143.209 392.844 145.448 395.606 145.448Z" stroke="#0E0F0C" stroke-width="1.668" stroke-miterlimit="10" stroke-linejoin="round"/>
<path d="M414.305 145.448C417.067 145.448 419.305 143.209 419.305 140.448C419.305 137.686 417.067 135.447 414.305 135.447C411.543 135.447 409.305 137.686 409.305 140.448C409.305 143.209 411.543 145.448 414.305 145.448Z" stroke="#0E0F0C" stroke-width="1.668" stroke-miterlimit="10" stroke-linejoin="round"/>
<path d="M433 145.448C435.762 145.448 438.001 143.209 438.001 140.448C438.001 137.686 435.762 135.447 433 135.447C430.239 135.447 428 137.686 428 140.448C428 143.209 430.239 145.448 433 145.448Z" stroke="#0E0F0C" stroke-width="1.668" stroke-miterlimit="10" stroke-linejoin="round"/>
<path d="M248.711 195.879C244.767 195.879 240.95 193.244 237.922 190.717L234.235 187.641C231.956 185.738 229.246 184.719 226.47 184.719H195.019C192.165 184.719 189.852 187.032 189.852 189.886V195.879V305.729C189.852 309.56 192.957 312.664 196.787 312.664H355.55C359.382 312.664 362.486 309.559 362.486 305.729V202.815C362.486 198.984 359.38 195.88 355.55 195.88H248.711V195.879Z" fill="white"/>
<path d="M218.851 271.322V250.166H220.997L234.84 268.481L234.417 269.025C234.356 268.703 234.306 268.219 234.266 267.575C234.245 266.93 234.215 266.204 234.175 265.398C234.155 264.572 234.135 263.716 234.114 262.829C234.094 261.943 234.074 261.076 234.054 260.23C234.054 259.384 234.054 258.618 234.054 257.933V250.166H236.411V271.322H234.205L220.423 253.248L220.786 252.614C220.846 253.42 220.896 254.216 220.937 255.001C220.997 255.787 221.038 256.543 221.058 257.268C221.098 257.994 221.128 258.658 221.148 259.263C221.169 259.867 221.179 260.381 221.179 260.804C221.199 261.227 221.209 261.53 221.209 261.711V271.322H218.851ZM248.716 271.625C247.144 271.625 245.744 271.272 244.515 270.567C243.306 269.861 242.349 268.884 241.643 267.635C240.958 266.386 240.616 264.965 240.616 263.373C240.616 261.802 240.958 260.401 241.643 259.172C242.349 257.943 243.306 256.976 244.515 256.271C245.744 255.566 247.144 255.213 248.716 255.213C250.267 255.213 251.648 255.566 252.857 256.271C254.086 256.976 255.043 257.943 255.728 259.172C256.433 260.401 256.786 261.802 256.786 263.373C256.786 264.965 256.433 266.386 255.728 267.635C255.043 268.884 254.086 269.861 252.857 270.567C251.648 271.272 250.267 271.625 248.716 271.625ZM248.716 269.479C249.824 269.479 250.811 269.217 251.678 268.693C252.544 268.149 253.219 267.423 253.703 266.517C254.186 265.59 254.428 264.542 254.428 263.373C254.428 262.205 254.186 261.167 253.703 260.26C253.219 259.354 252.544 258.648 251.678 258.145C250.811 257.621 249.824 257.359 248.716 257.359C247.608 257.359 246.61 257.621 245.724 258.145C244.857 258.648 244.172 259.364 243.668 260.291C243.185 261.197 242.953 262.225 242.973 263.373C242.953 264.542 243.185 265.59 243.668 266.517C244.172 267.423 244.857 268.149 245.724 268.693C246.61 269.217 247.608 269.479 248.716 269.479ZM269.47 271.322V250.166H277.45C278.9 250.166 280.22 250.427 281.409 250.951C282.618 251.455 283.666 252.18 284.552 253.127C285.439 254.075 286.124 255.193 286.607 256.482C287.091 257.772 287.333 259.192 287.333 260.744C287.333 262.295 287.091 263.726 286.607 265.036C286.124 266.325 285.439 267.444 284.552 268.391C283.686 269.317 282.648 270.043 281.439 270.567C280.23 271.07 278.9 271.322 277.45 271.322H269.47ZM271.828 269.448L271.556 269.025H277.298C278.407 269.025 279.424 268.834 280.351 268.451C281.298 268.048 282.104 267.484 282.769 266.758C283.454 266.013 283.978 265.136 284.341 264.129C284.723 263.122 284.915 261.993 284.915 260.744C284.915 259.495 284.723 258.366 284.341 257.359C283.978 256.351 283.454 255.485 282.769 254.76C282.084 254.014 281.278 253.45 280.351 253.067C279.424 252.664 278.407 252.463 277.298 252.463H271.465L271.828 252.1V269.448ZM297.191 271.625C295.821 271.625 294.581 271.272 293.473 270.567C292.365 269.841 291.488 268.864 290.844 267.635C290.199 266.386 289.877 264.975 289.877 263.404C289.877 261.812 290.209 260.401 290.874 259.172C291.539 257.943 292.425 256.976 293.534 256.271C294.662 255.566 295.921 255.213 297.312 255.213C298.138 255.213 298.903 255.334 299.609 255.576C300.314 255.817 300.938 256.16 301.482 256.603C302.047 257.026 302.51 257.53 302.873 258.114C303.256 258.679 303.518 259.293 303.659 259.958L302.994 259.626L303.084 255.545H305.351V271.322H303.054V267.454L303.659 267.061C303.518 267.665 303.246 268.25 302.843 268.814C302.44 269.358 301.946 269.841 301.362 270.264C300.797 270.688 300.153 271.02 299.427 271.262C298.722 271.504 297.977 271.625 297.191 271.625ZM297.705 269.448C298.752 269.448 299.689 269.197 300.515 268.693C301.341 268.169 301.986 267.454 302.45 266.547C302.933 265.62 303.175 264.572 303.175 263.404C303.175 262.235 302.933 261.197 302.45 260.291C301.986 259.384 301.341 258.669 300.515 258.145C299.689 257.621 298.752 257.359 297.705 257.359C296.637 257.359 295.69 257.621 294.863 258.145C294.057 258.669 293.413 259.384 292.929 260.291C292.466 261.197 292.234 262.235 292.234 263.404C292.234 264.552 292.466 265.59 292.929 266.517C293.393 267.423 294.037 268.139 294.863 268.663C295.69 269.186 296.637 269.448 297.705 269.448ZM311.943 271.322V251.405H314.21V271.322H311.943ZM308.377 257.722V255.545H318.2V257.722H308.377ZM327.001 271.625C325.631 271.625 324.392 271.272 323.284 270.567C322.176 269.841 321.299 268.864 320.654 267.635C320.01 266.386 319.687 264.975 319.687 263.404C319.687 261.812 320.02 260.401 320.685 259.172C321.349 257.943 322.236 256.976 323.344 256.271C324.473 255.566 325.732 255.213 327.122 255.213C327.948 255.213 328.714 255.334 329.419 255.576C330.124 255.817 330.749 256.16 331.293 256.603C331.857 257.026 332.321 257.53 332.683 258.114C333.066 258.679 333.328 259.293 333.469 259.958L332.804 259.626L332.895 255.545H335.162V271.322H332.865V267.454L333.469 267.061C333.328 267.665 333.056 268.25 332.653 268.814C332.25 269.358 331.757 269.841 331.172 270.264C330.608 270.688 329.963 271.02 329.238 271.262C328.533 271.504 327.787 271.625 327.001 271.625ZM327.515 269.448C328.563 269.448 329.5 269.197 330.326 268.693C331.152 268.169 331.797 267.454 332.26 266.547C332.744 265.62 332.986 264.572 332.986 263.404C332.986 262.235 332.744 261.197 332.26 260.291C331.797 259.384 331.152 258.669 330.326 258.145C329.5 257.621 328.563 257.359 327.515 257.359C326.447 257.359 325.5 257.621 324.674 258.145C323.868 258.669 323.223 259.384 322.74 260.291C322.276 261.197 322.045 262.235 322.045 263.404C322.045 264.552 322.276 265.59 322.74 266.517C323.203 267.423 323.848 268.139 324.674 268.663C325.5 269.186 326.447 269.448 327.515 269.448Z" fill="#0E0F0C" fill-opacity="0.6"/>
<path d="M350.01 218.1H305.098C303.096 218.1 301.473 216.477 301.473 214.475C301.473 212.473 303.096 210.85 305.098 210.85H350.01C352.012 210.85 353.636 212.473 353.636 214.475C353.636 216.478 352.012 218.1 350.01 218.1Z" stroke="#0E0F0C" stroke-opacity="0.4" stroke-width="1.668" stroke-miterlimit="10"/>
</svg>
