<svg width="510" height="235" viewBox="0 0 510 235" fill="none" xmlns="http://www.w3.org/2000/svg">
<path d="M0 187.352V166.108L83.0008 47.041H117.09V162.896H140.064V187.352H117.09V224.9H89.4232V187.352H0ZM90.6586 75.6957L32.3604 162.896H90.6586V75.6957Z" fill="black" fill-opacity="0.6"/>
<path d="M117.003 47.1279V162.983H139.977V187.265H117.003V224.812H89.5107V187.265H0.0869141V166.135L83.0469 47.1279H117.003ZM90.5859 75.6475L32.2881 162.848L32.1973 162.983H90.7461V75.4092L90.5859 75.6475Z" stroke="#0E0F0C" stroke-opacity="0.8" stroke-width="0.174168"/>
<path d="M369.15 187.352V166.108L452.151 47.041H486.241V162.896H509.214V187.352H486.241V224.9H458.574V187.352H369.15ZM459.809 75.6957L401.511 162.896H459.809V75.6957Z" fill="black" fill-opacity="0.6"/>
<path d="M486.153 47.1279V162.983H509.127V187.265H486.153V224.812H458.661V187.265H369.237V166.135L452.197 47.1279H486.153ZM459.736 75.6475L401.438 162.848L401.348 162.983H459.896V75.4092L459.736 75.6475Z" stroke="#0E0F0C" stroke-opacity="0.8" stroke-width="0.174168"/>
<path d="M256.676 231.609C308.889 231.609 351.217 189.282 351.217 137.068C351.217 84.8547 308.889 42.5273 256.676 42.5273C204.462 42.5273 162.135 84.8547 162.135 137.068C162.135 189.282 204.462 231.609 256.676 231.609Z" fill="white" stroke="#0E0F0C" stroke-opacity="0.8" stroke-width="0.940507" stroke-miterlimit="10"/>
<path d="M218.197 108.821C229.547 108.821 238.749 99.6198 238.749 88.2691C238.749 76.9184 229.547 67.7168 218.197 67.7168C206.846 67.7168 197.645 76.9184 197.645 88.2691C197.645 99.6198 206.846 108.821 218.197 108.821Z" fill="#0E0F0C" fill-opacity="0.2"/>
<path d="M218.197 67.8037C229.5 67.804 238.662 76.9671 238.662 88.2695C238.662 99.5718 229.499 108.734 218.197 108.734C206.895 108.734 197.732 99.5719 197.731 88.2695C197.731 76.9669 206.895 67.8037 218.197 67.8037Z" stroke="#0E0F0C" stroke-opacity="0.8" stroke-width="0.174168"/>
<path d="M196.244 138.369C197.23 132.207 193.033 126.412 186.87 125.426C180.707 124.441 174.912 128.638 173.927 134.8C172.941 140.963 177.138 146.758 183.301 147.743C189.464 148.729 195.259 144.532 196.244 138.369Z" fill="#0E0F0C" fill-opacity="0.2"/>
<path d="M174.013 134.814C174.991 128.699 180.741 124.535 186.856 125.512C192.971 126.49 197.136 132.24 196.158 138.356C195.18 144.471 189.43 148.635 183.315 147.658C177.2 146.68 173.035 140.929 174.013 134.814Z" stroke="#0E0F0C" stroke-opacity="0.8" stroke-width="0.174168"/>
<path d="M314.82 174.04C321.165 174.04 326.309 168.896 326.309 162.55C326.309 156.205 321.165 151.061 314.82 151.061C308.474 151.061 303.33 156.205 303.33 162.55C303.33 168.896 308.474 174.04 314.82 174.04Z" fill="#0E0F0C" fill-opacity="0.2"/>
<path d="M314.819 151.147C321.117 151.147 326.222 156.253 326.223 162.55C326.223 168.847 321.117 173.953 314.819 173.953C308.522 173.953 303.417 168.847 303.417 162.55C303.417 156.253 308.522 151.148 314.819 151.147Z" stroke="#0E0F0C" stroke-opacity="0.8" stroke-width="0.174168"/>
<path d="M331.74 118.288C333.276 109.652 327.52 101.405 318.884 99.8692C310.247 98.3331 302.001 104.089 300.465 112.726C298.929 121.362 304.685 129.609 313.321 131.145C321.958 132.681 330.204 126.925 331.74 118.288Z" fill="#0E0F0C" fill-opacity="0.2"/>
<path d="M300.55 112.741C302.078 104.152 310.279 98.4274 318.868 99.9549C327.458 101.483 333.182 109.684 331.654 118.273C330.127 126.862 321.925 132.587 313.336 131.059C304.747 129.531 299.023 121.33 300.55 112.741Z" stroke="#0E0F0C" stroke-opacity="0.8" stroke-width="0.174168"/>
<path d="M233.913 138.007C238.299 138.007 241.854 134.451 241.854 130.065C241.854 125.679 238.299 122.123 233.913 122.123C229.526 122.123 225.971 125.679 225.971 130.065C225.971 134.451 229.526 138.007 233.913 138.007Z" fill="#0E0F0C" fill-opacity="0.2"/>
<path d="M233.912 122.21C238.25 122.21 241.767 125.727 241.768 130.064C241.768 134.403 238.25 137.92 233.912 137.92C229.574 137.92 226.058 134.402 226.058 130.064C226.058 125.727 229.574 122.21 233.912 122.21Z" stroke="#0E0F0C" stroke-opacity="0.8" stroke-width="0.174168"/>
<path d="M206.671 179.46C209.738 179.46 212.224 176.974 212.224 173.907C212.224 170.84 209.738 168.354 206.671 168.354C203.603 168.354 201.117 170.84 201.117 173.907C201.117 176.974 203.603 179.46 206.671 179.46Z" fill="#0E0F0C" fill-opacity="0.2"/>
<path d="M206.671 168.44C209.69 168.441 212.137 170.888 212.137 173.907C212.137 176.926 209.69 179.373 206.671 179.373C203.652 179.373 201.204 176.926 201.204 173.907C201.204 170.888 203.652 168.44 206.671 168.44Z" stroke="#0E0F0C" stroke-opacity="0.8" stroke-width="0.174168"/>
<path d="M243.535 211.353C248.702 211.353 252.89 207.165 252.89 201.998C252.89 196.831 248.702 192.643 243.535 192.643C238.368 192.643 234.18 196.831 234.18 201.998C234.18 207.165 238.368 211.353 243.535 211.353Z" fill="#0E0F0C" fill-opacity="0.2"/>
<path d="M243.535 192.729C248.654 192.73 252.803 196.879 252.803 201.998C252.803 207.117 248.654 211.266 243.535 211.266C238.417 211.266 234.267 207.117 234.267 201.998C234.267 196.879 238.416 192.729 243.535 192.729Z" stroke="#0E0F0C" stroke-opacity="0.8" stroke-width="0.174168"/>
<path d="M202.062 61.0249L201.266 57.273L215.08 48.9727L218.094 51.9289" fill="white"/>
<path d="M202.062 61.0249L201.266 57.273L215.08 48.9727L218.094 51.9289" stroke="#0E0F0C" stroke-opacity="0.8" stroke-width="0.940507" stroke-miterlimit="10"/>
<path d="M342.678 101.129L348.007 100.566L352.814 116.015L347.866 118.74" fill="white"/>
<path d="M342.678 101.129L348.007 100.566L352.814 116.015L347.866 118.74" stroke="#0E0F0C" stroke-opacity="0.8" stroke-width="0.940507" stroke-miterlimit="10"/>
<path d="M165.286 118.995L160.381 116.675L166.255 99.7734L172.232 99.8833" fill="white"/>
<path d="M165.286 118.995L160.381 116.675L166.255 99.7734L172.232 99.8833" stroke="#0E0F0C" stroke-opacity="0.8" stroke-width="1.00215" stroke-miterlimit="10"/>
<path d="M287.435 225.488L287.683 230.51L267.156 234.195L264.016 229.393" fill="white"/>
<path d="M287.435 225.488L287.683 230.51L267.156 234.195L264.016 229.393" stroke="#0E0F0C" stroke-opacity="0.8" stroke-width="1.09794" stroke-miterlimit="10"/>
<path d="M186.951 48.6023C183.112 49.28 182.563 49.8292 181.886 53.6675C181.208 49.8292 180.659 49.28 176.82 48.6023C180.659 47.9247 181.208 47.3754 181.886 43.5371C182.563 47.3754 183.112 47.9247 186.951 48.6023Z" fill="white"/>
<path d="M181.885 44.0156C182.193 45.6518 182.507 46.6527 183.171 47.3164C183.835 47.98 184.836 48.2934 186.472 48.6016C184.836 48.9098 183.835 49.2241 183.171 49.8877C182.507 50.5513 182.193 51.5524 181.885 53.1885C181.577 51.5525 181.263 50.5513 180.6 49.8877C179.936 49.2242 178.935 48.9098 177.299 48.6016C178.935 48.2933 179.936 47.9801 180.6 47.3164C181.263 46.6527 181.577 45.6519 181.885 44.0156Z" stroke="#0E0F0C" stroke-opacity="0.8" stroke-width="0.174168"/>
<path d="M186.951 48.6023C183.112 49.28 182.563 49.8292 181.886 53.6675C181.208 49.8292 180.659 49.28 176.82 48.6023C180.659 47.9247 181.208 47.3754 181.886 43.5371C182.563 47.3754 183.112 47.9247 186.951 48.6023Z" stroke="#0E0F0C" stroke-opacity="0.8" stroke-width="0.413074" stroke-miterlimit="10"/>
<path d="M151.884 89.6014C146.767 90.505 146.034 91.2373 145.131 96.3552C144.227 91.2375 143.495 90.505 138.377 89.6014C143.495 88.6979 144.227 87.9656 145.131 82.8477C146.034 87.9656 146.767 88.6979 151.884 89.6014Z" fill="white"/>
<path d="M145.13 83.3262C145.55 85.5999 145.967 86.9675 146.865 87.8662C147.764 88.7648 149.132 89.1801 151.405 89.6006C149.132 90.0211 147.764 90.4374 146.865 91.3359C145.967 92.2345 145.55 93.6024 145.13 95.876C144.709 93.6028 144.294 92.2355 143.396 91.3369C142.497 90.4382 141.129 90.0211 138.855 89.6006C141.129 89.1801 142.497 88.7648 143.396 87.8662C144.294 86.9676 144.709 85.5999 145.13 83.3262Z" stroke="#0E0F0C" stroke-opacity="0.8" stroke-width="0.174168"/>
<path d="M151.884 89.6014C146.767 90.505 146.034 91.2373 145.131 96.3552C144.227 91.2375 143.495 90.505 138.377 89.6014C143.495 88.6979 144.227 87.9656 145.131 82.8477C146.034 87.9656 146.767 88.6979 151.884 89.6014Z" stroke="#0E0F0C" stroke-opacity="0.8" stroke-width="0.413074" stroke-miterlimit="10"/>
<path d="M173.591 214.447C169.205 215.221 168.577 215.849 167.803 220.236C167.028 215.849 166.4 215.221 162.014 214.447C166.4 213.673 167.028 213.045 167.803 208.658C168.577 213.045 169.205 213.673 173.591 214.447Z" fill="white"/>
<path d="M167.803 209.136C168.159 211.046 168.517 212.204 169.281 212.969C170.046 213.733 171.203 214.091 173.112 214.447C171.203 214.804 170.046 215.161 169.281 215.926C168.517 216.69 168.159 217.848 167.803 219.757C167.447 217.848 167.088 216.69 166.324 215.926C165.56 215.161 164.401 214.804 162.491 214.447C164.401 214.091 165.56 213.733 166.324 212.969C167.089 212.204 167.446 211.046 167.803 209.136Z" stroke="#0E0F0C" stroke-opacity="0.8" stroke-width="0.174168"/>
<path d="M173.591 214.447C169.205 215.221 168.577 215.849 167.803 220.236C167.028 215.849 166.4 215.221 162.014 214.447C166.4 213.673 167.028 213.045 167.803 208.658C168.577 213.045 169.205 213.673 173.591 214.447Z" stroke="#0E0F0C" stroke-opacity="0.8" stroke-width="0.413074" stroke-miterlimit="10"/>
<path d="M352.225 204.06C348.326 204.748 347.767 205.306 347.079 209.205C346.391 205.306 345.833 204.748 341.934 204.06C345.833 203.371 346.391 202.813 347.079 198.914C347.767 202.813 348.326 203.371 352.225 204.06Z" fill="white"/>
<path d="M347.079 199.393C347.393 201.059 347.712 202.078 348.387 202.753C349.061 203.427 350.079 203.746 351.745 204.06C350.079 204.373 349.061 204.692 348.387 205.367C347.712 206.042 347.393 207.06 347.079 208.726C346.766 207.06 346.447 206.042 345.772 205.367C345.098 204.692 344.079 204.373 342.412 204.06C344.079 203.746 345.098 203.428 345.772 202.753C346.447 202.078 346.766 201.059 347.079 199.393Z" stroke="#0E0F0C" stroke-opacity="0.8" stroke-width="0.174168"/>
<path d="M352.225 204.06C348.326 204.748 347.767 205.306 347.079 209.205C346.391 205.306 345.833 204.748 341.934 204.06C345.833 203.371 346.391 202.813 347.079 198.914C347.767 202.813 348.326 203.371 352.225 204.06Z" stroke="#0E0F0C" stroke-opacity="0.8" stroke-width="0.413074" stroke-miterlimit="10"/>
<path d="M387.592 93.0975C382.474 94.0011 381.741 94.7334 380.838 99.8513C379.934 94.7336 379.202 94.0011 374.084 93.0975C379.202 92.194 379.934 91.4617 380.838 86.3438C381.741 91.4617 382.474 92.1942 387.592 93.0975Z" fill="white"/>
<path d="M380.837 86.8223C381.257 89.0959 381.674 90.4636 382.572 91.3623C383.471 92.261 384.839 92.6772 387.113 93.0977C384.839 93.5182 383.471 93.9334 382.572 94.832C381.674 95.7306 381.257 97.0985 380.837 99.3721C380.416 97.0989 380.001 95.7316 379.103 94.833C378.204 93.9342 376.836 93.5182 374.562 93.0977C376.836 92.6771 378.204 92.2611 379.103 91.3623C380.001 90.4637 380.416 89.096 380.837 86.8223Z" stroke="#0E0F0C" stroke-opacity="0.8" stroke-width="0.174168"/>
<path d="M387.592 93.0975C382.474 94.0011 381.741 94.7334 380.838 99.8513C379.934 94.7336 379.202 94.0011 374.084 93.0975C379.202 92.194 379.934 91.4617 380.838 86.3438C381.741 91.4617 382.474 92.1942 387.592 93.0975Z" stroke="#0E0F0C" stroke-opacity="0.8" stroke-width="0.413074" stroke-miterlimit="10"/>
<path d="M325.861 59.8841C325.861 59.8841 345.767 62.5897 358.774 46.0937C360.466 43.9485 358.626 40.8393 355.92 41.2183C351.136 41.8883 345.053 41.9256 341.604 38.7949C341.604 38.7949 336.614 46.522 325.861 59.8841Z" fill="white" stroke="#0E0F0C" stroke-opacity="0.8" stroke-width="0.897035" stroke-miterlimit="10"/>
<path d="M299.884 41.1406C299.884 41.1406 295.283 21.5854 310.457 7.05752C312.43 5.16806 315.701 6.70149 315.583 9.43091C315.375 14.2576 315.921 20.3159 319.367 23.4494C319.367 23.4494 312.154 29.1561 299.884 41.1406Z" fill="white" stroke="#0E0F0C" stroke-opacity="0.8" stroke-width="0.897035" stroke-miterlimit="10"/>
<path d="M309.931 61.7454C314.244 61.7454 317.739 58.2495 317.739 53.9371C317.739 49.6248 314.244 46.1289 309.931 46.1289C305.619 46.1289 302.123 49.6248 302.123 53.9371C302.123 58.2495 305.619 61.7454 309.931 61.7454Z" fill="white"/>
<path d="M309.932 46.2158C314.196 46.216 317.652 49.6734 317.652 53.9375C317.652 58.2015 314.196 61.658 309.932 61.6582C305.667 61.6582 302.21 58.2016 302.21 53.9375C302.21 49.6732 305.667 46.2158 309.932 46.2158Z" stroke="#0E0F0C" stroke-opacity="0.8" stroke-width="0.174168"/>
<path d="M323.99 21.1142L324.563 17.8438L343.669 32.0784L340.934 33.6272C340.278 33.9986 339.465 33.9476 338.86 33.4973L324.726 22.9678C324.151 22.5388 323.866 21.8218 323.99 21.1142Z" fill="white" stroke="#0E0F0C" stroke-opacity="0.8" stroke-width="0.897035" stroke-miterlimit="10"/>
<path d="M288.332 60.4491C289.292 55.7449 290.232 51.9855 293.291 46.663C301.277 32.7712 312.45 24.7826 319.621 20.4275C320.436 19.9319 321.469 19.9873 322.234 20.5576C328.754 25.4148 335.274 30.2719 341.793 35.1288C342.628 35.7505 342.959 36.8433 342.597 37.8191C339.799 45.3564 334.384 56.5945 323.875 66.9446C318.312 72.4225 314.958 73.9641 311.415 76.3498L306.892 73.5667L304.461 68.2264L298.027 67.3013L295.278 65.3582L294.593 59.6591C294.593 59.6591 289.666 61.3915 288.332 60.4491Z" fill="white" stroke="#0E0F0C" stroke-opacity="0.8" stroke-width="0.897035" stroke-miterlimit="10"/>
<path d="M309.71 64.6775C303.86 64.6775 299.1 59.9179 299.1 54.0672C299.1 48.2169 303.86 43.457 309.71 43.457C315.56 43.457 320.32 48.2167 320.32 54.0672C320.319 59.9179 315.56 64.6775 309.71 64.6775ZM309.71 46.4198C305.493 46.4198 302.062 49.8506 302.062 54.0672C302.062 58.284 305.493 61.7148 309.71 61.7148C313.927 61.7148 317.357 58.284 317.357 54.0672C317.357 49.8506 313.926 46.4198 309.71 46.4198Z" fill="white" stroke="#0E0F0C" stroke-opacity="0.8" stroke-width="0.850932" stroke-miterlimit="10"/>
<path d="M287.834 64.33L276.773 62.0887L276.57 62.0476L276.477 61.8623L274.019 56.9463L274.357 57.1789L264.133 55.7441L274.441 56.3335L274.669 56.3466L274.779 56.5663L277.237 61.4825L276.941 61.2562L288.003 63.4974L287.834 64.33Z" fill="black" fill-opacity="0.6"/>
<path d="M274.436 56.4209L274.613 56.4307L274.701 56.6055L276.986 61.1758L276.959 61.1709L276.889 61.3252L277.185 61.5518L277.315 61.4434L277.303 61.418L287.9 63.5654L287.766 64.2266L276.79 62.0029L276.628 61.9697L276.556 61.8232H276.555L274.27 57.2539L274.346 57.2646L274.407 57.1074L274.068 56.875L273.941 56.9854L273.967 57.0361L266.236 55.9512L274.436 56.4209Z" stroke="#0E0F0C" stroke-opacity="0.8" stroke-width="0.174168"/>
<path d="M300.486 67.6562L301.052 73.7905L300.886 73.4511L306.111 78.3211L306.245 78.4455L306.269 78.5987L307.666 87.6998L305.231 78.8198L305.388 79.0974L300.162 74.2274L300.014 74.0896L299.996 73.888L299.43 67.754L300.486 67.6562Z" fill="black" fill-opacity="0.6"/>
<path d="M300.929 73.3994L300.808 73.4893L300.975 73.8291L301.119 73.7871L306.052 78.3848L306.163 78.4883L306.183 78.6123L307.351 86.2227L305.398 79.1055L305.464 79.0547L305.307 78.7773L305.212 78.8154L300.222 74.1641L300.097 74.0479L300.082 73.8799L299.524 67.832L300.407 67.751L300.929 73.3994Z" stroke="#0E0F0C" stroke-opacity="0.8" stroke-width="0.174168"/>
<path d="M295.687 65.9285L293.285 73.1649L293.17 73.5101L292.81 73.5613L287.207 74.3597L287.661 73.5395L289.526 79.1683C289.294 78.7638 286.305 73.5202 286.189 73.3186L287.042 73.1971L292.645 72.3987L292.171 72.795L294.572 65.5586L295.687 65.9285Z" fill="black" fill-opacity="0.6"/>
<path d="M295.576 65.9824L293.202 73.1377L293.104 73.4307L292.798 73.4746L287.959 74.1641L287.743 73.5117L287.681 73.3232L287.584 73.4971L287.131 74.3174L287.046 74.4707L287.22 74.4463L287.84 74.3574L289.168 78.3652C288.354 76.9383 286.683 74.0077 286.328 73.3867L287.054 73.2832L292.157 72.5557L292.088 72.7676L291.991 73.0586L292.227 72.8623L292.701 72.4658L292.936 72.2695L292.633 72.3125L292.411 72.3438L294.626 65.668L295.576 65.9824ZM287.784 74.1885L287.367 74.248L287.64 73.7549L287.784 74.1885ZM292.349 72.5322L292.35 72.5283H292.354L292.349 72.5322Z" stroke="#0E0F0C" stroke-opacity="0.8" stroke-width="0.174168"/>
<path d="M312.351 76.625L314.954 80.6738L314.649 80.4819L319.276 81.0603L319.489 81.0868L319.577 81.2464L322.116 85.8197L318.87 81.7174L319.171 81.9032L314.544 81.325L314.347 81.3003L314.239 81.133L311.637 77.0844L312.351 76.625Z" fill="black" fill-opacity="0.6"/>
<path d="M314.672 80.3965L314.66 80.3955L314.603 80.5557L314.907 80.7471L315.027 80.627L315.02 80.6152L319.266 81.1465L319.433 81.167L319.501 81.2881V81.2891L321.521 84.9287L319.171 81.957L319.217 81.8291L318.916 81.6436L318.804 81.7686L314.555 81.2383L314.397 81.2188L314.312 81.0859L311.757 77.1094L312.325 76.7451L314.672 80.3965Z" stroke="#0E0F0C" stroke-opacity="0.8" stroke-width="0.174168"/>
<path d="M287.605 57.9486L285.255 52.9239L285.499 53.1449L280.182 50.8281L285.781 52.3433L285.942 52.3868L286.025 52.5642L288.374 57.5888L287.605 57.9486Z" fill="black" fill-opacity="0.6"/>
<path d="M285.758 52.4277L285.88 52.46L285.945 52.6006V52.6016L288.259 57.5459L287.646 57.833L285.48 53.1992L285.558 53.0801L285.313 52.8594L285.22 52.9277L281.305 51.2217L285.758 52.4277Z" stroke="#0E0F0C" stroke-opacity="0.8" stroke-width="0.174168"/>
<path d="M261.93 0.704415C267.678 0.229637 268.896 3.42418 266.516 9.78234C264.136 16.1405 258.208 23.1996 259.713 25.6462C262.451 30.0993 279.366 21.7186 282.782 27.5696C288.464 37.3039 276.224 44.7177 278.068 47.321C279.912 49.9244 281.065 51.2793 281.573 53.6727C278.464 53.6336 278.494 53.8637 275.894 53.0527C273.294 52.2417 274.39 47.6263 276.833 43.9485C279.275 40.2708 279.003 38.1297 277.433 35.8221C275.862 33.5146 262.5 40.0756 257.043 34.2105C248.117 24.6185 265.665 11.5001 264.977 7.70732C264.395 4.49769 258.402 0.995863 261.93 0.704415Z" fill="black" fill-opacity="0.6"/>
<path d="M261.938 0.791016C264.801 0.554505 266.491 1.23522 267.192 2.71777C267.546 3.46512 267.655 4.42854 267.525 5.60547C267.396 6.78193 267.028 8.1664 266.435 9.75195C265.248 12.9229 263.177 16.2676 261.582 19.1387C260.786 20.5714 260.108 21.8879 259.724 23.001C259.342 24.1078 259.24 25.043 259.639 25.6914C259.996 26.2722 260.581 26.6393 261.326 26.8516C262.07 27.0636 262.979 27.124 263.995 27.0898C266.026 27.0216 268.512 26.5729 271.007 26.1699C273.507 25.7662 276.019 25.4075 278.117 25.5137C280.218 25.62 281.875 26.1903 282.706 27.6133C285.523 32.4384 283.903 36.6877 281.79 40.0732C281.262 40.9196 280.704 41.7111 280.177 42.4434C279.65 43.1747 279.154 43.8494 278.753 44.458C278.353 45.0655 278.042 45.6147 277.891 46.0977C277.739 46.5821 277.745 47.0148 277.997 47.3711C279.818 49.9423 280.948 51.2792 281.463 53.585C279.975 53.5689 279.236 53.6128 278.549 53.5654C277.853 53.5174 277.218 53.3747 275.92 52.9697C275.298 52.7757 274.898 52.3558 274.682 51.7744C274.464 51.1893 274.433 50.4382 274.559 49.5889C274.811 47.8902 275.689 45.8286 276.905 43.9971C278.131 42.1516 278.683 40.6803 278.725 39.374C278.766 38.0657 278.296 36.9357 277.505 35.7734C277.286 35.452 276.871 35.2977 276.338 35.2441C275.801 35.1903 275.121 35.2353 274.341 35.335C273.559 35.4347 272.67 35.5902 271.715 35.7588C270.759 35.9275 269.736 36.1102 268.683 36.2646C266.575 36.5736 264.353 36.7697 262.32 36.5254C260.288 36.2811 258.452 35.5974 257.106 34.1514C254.895 31.7744 254.324 29.1827 254.7 26.5684C255.077 23.949 256.404 21.3039 257.994 18.8311C259.585 16.3578 261.431 14.0686 262.843 12.1514C263.547 11.1945 264.145 10.3293 264.545 9.58301C264.942 8.84118 265.155 8.19723 265.063 7.69141C264.914 6.86856 264.42 6.03484 263.829 5.24805C263.238 4.46076 262.541 3.70781 261.979 3.05469C261.696 2.72685 261.449 2.42404 261.263 2.15234C261.075 1.87892 260.956 1.64578 260.922 1.45508C260.905 1.36127 260.91 1.2812 260.934 1.21289C260.957 1.14523 261.003 1.08325 261.077 1.02734C261.229 0.912718 261.501 0.827102 261.938 0.791016Z" stroke="#0E0F0C" stroke-opacity="0.8" stroke-width="0.174168"/>
<path d="M263.915 3.23633C263.915 3.23633 266.474 6.30618 264.342 9.71746C262.21 13.1285 238.56 31.6906 279.72 25.323" stroke="#0E0F0C" stroke-opacity="0.8" stroke-width="0.470253" stroke-miterlimit="10"/>
</svg>
