<svg width="25" height="24" viewBox="0 0 25 24" fill="none" xmlns="http://www.w3.org/2000/svg">
<path d="M6.11719 21V19C6.11719 17.9391 6.53861 16.9217 7.28876 16.1716C8.03891 15.4214 9.05632 15 10.1172 15H14.1172C15.1781 15 16.1955 15.4214 16.9456 16.1716C17.6958 16.9217 18.1172 17.9391 18.1172 19V21M8.11719 7C8.11719 8.06087 8.53861 9.07828 9.28876 9.82843C10.0389 10.5786 11.0563 11 12.1172 11C13.1781 11 14.1955 10.5786 14.9456 9.82843C15.6958 9.07828 16.1172 8.06087 16.1172 7C16.1172 5.93913 15.6958 4.92172 14.9456 4.17157C14.1955 3.42143 13.1781 3 12.1172 3C11.0563 3 10.0389 3.42143 9.28876 4.17157C8.53861 4.92172 8.11719 5.93913 8.11719 7Z" stroke="#8D9105" stroke-width="1.5" stroke-linecap="round" stroke-linejoin="round"/>
</svg>
